<?xml version="1.0" encoding="UTF-8"?>
<svg version="1.1" xmlns="http://www.w3.org/2000/svg" width="744" height="335">
<path d="M0 0 C4.0830942 -0.11614929 8.16576377 -0.18723457 12.25 -0.25 C13.40886719 -0.28351563 14.56773438 -0.31703125 15.76171875 -0.3515625 C16.87675781 -0.36445312 17.99179688 -0.37734375 19.140625 -0.390625 C20.16704102 -0.41157227 21.19345703 -0.43251953 22.25097656 -0.45410156 C25.72427331 0.11964017 26.90128251 1.22136328 29 4 C29 4.99 29 5.98 29 7 C29.66 7 30.32 7 31 7 C32.9453125 9.1171875 32.9453125 9.1171875 35.125 11.875 C35.84945312 12.77992187 36.57390625 13.68484375 37.3203125 14.6171875 C39 17 39 17 39 19 C39.66 19 40.32 19 41 19 C42.37915676 20.65498811 43.67650388 22.37830374 44.9375 24.125 C45.75104779 25.23811835 46.56621896 26.35005161 47.3828125 27.4609375 C47.81110352 28.04456055 48.23939453 28.62818359 48.68066406 29.22949219 C50.83249046 32.11717632 53.07464059 34.92835118 55.3125 37.75 C61.32284274 45.4115358 67.15736307 53.20981743 73 61 C73.33 45.49 73.66 29.98 74 14 C70.37 13.34 66.74 12.68 63 12 C62 10 62 10 62 0 C74.87 0 87.74 0 101 0 C101 3.63 101 7.26 101 11 C98 13 98 13 91 14 C91 41.06 91 68.12 91 96 C79 96 79 96 75 94 C73.44775391 92.33935547 73.44775391 92.33935547 71.9765625 90.3671875 C71.43 89.64273438 70.8834375 88.91828125 70.3203125 88.171875 C69.76085937 87.41390625 69.20140625 86.6559375 68.625 85.875 C68.07328125 85.14023438 67.5215625 84.40546875 66.953125 83.6484375 C64.76814813 80.735135 62.59844962 77.81076053 60.43579102 74.88085938 C57.33055384 70.69725529 54.10105868 66.68448326 50.6875 62.75 C46.32618319 57.66130021 42.23283077 52.45102144 38.265625 47.046875 C35.2427301 42.98160254 32.1102218 38.9988566 29 35 C28.67 50.18 28.34 65.36 28 81 C30.97 81.33 33.94 81.66 37 82 C39 84 39 84 39 96 C26.13 96 13.26 96 0 96 C0 84 0 84 2 82 C4.64 81.67 7.28 81.34 10 81 C10 58.89 10 36.78 10 14 C5.545 13.01 5.545 13.01 1 12 C-0.26237731 9.47524538 -0.09856404 7.68799534 -0.0625 4.875 C-0.05347656 3.96492188 -0.04445312 3.05484375 -0.03515625 2.1171875 C-0.02355469 1.41851562 -0.01195312 0.71984375 0 0 Z " fill="#F1F1F1" transform="translate(64,112)"/>
<path d="M0 0 C0.83265381 0.00523682 1.66530762 0.01047363 2.52319336 0.01586914 C3.42231445 0.0190918 4.32143555 0.02231445 5.24780273 0.02563477 C6.66609375 0.03820312 6.66609375 0.03820312 8.11303711 0.05102539 C9.06243164 0.05553711 10.01182617 0.06004883 10.98999023 0.06469727 C13.34356776 0.07652429 15.69702188 0.09300514 18.05053711 0.11352539 C22.14233206 8.71558096 25.64668508 17.5116366 29.07958984 26.39038086 C29.97899909 28.71516402 30.88450187 31.03750308 31.79077148 33.35961914 C35.27652342 42.32448177 38.57652253 51.33854132 41.75292969 60.41723633 C45.26387184 72.20945045 45.26387184 72.20945045 52.20288086 81.85961914 C54.57553341 83.00956312 54.57553341 83.00956312 58.05053711 84.11352539 C60.42525203 87.7136541 60.29087225 90.86760461 60.05053711 95.11352539 C59.05053711 96.11352539 59.05053711 96.11352539 55.90771484 96.22705078 C54.51651013 96.22689172 53.1252995 96.22120046 51.73413086 96.21118164 C50.63754906 96.20905922 50.63754906 96.20905922 49.51881409 96.20689392 C47.17518079 96.20127947 44.83164172 96.18872461 42.48803711 96.17602539 C40.90275203 96.17101225 39.31746545 96.16644902 37.73217773 96.16235352 C33.83826101 96.15130536 29.94441505 96.13403111 26.05053711 96.11352539 C25.9964537 94.50191504 25.95770636 92.88978455 25.92553711 91.27758789 C25.90233398 90.37991699 25.87913086 89.48224609 25.85522461 88.55737305 C26.05053711 86.11352539 26.05053711 86.11352539 28.05053711 83.48852539 C28.71053711 83.03477539 29.37053711 82.58102539 30.05053711 82.11352539 C29.83397461 81.57083008 29.61741211 81.02813477 29.39428711 80.46899414 C29.11584961 79.75356445 28.83741211 79.03813477 28.55053711 78.30102539 C28.27209961 77.59333008 27.99366211 76.88563477 27.70678711 76.15649414 C27.05053711 74.11352539 27.05053711 74.11352539 27.05053711 71.11352539 C14.51053711 71.11352539 1.97053711 71.11352539 -10.94946289 71.11352539 C-11.27946289 72.76352539 -11.60946289 74.41352539 -11.94946289 76.11352539 C-12.59336071 78.12097154 -13.25508542 80.12297663 -13.94946289 82.11352539 C-13.28946289 82.56727539 -12.62946289 83.02102539 -11.94946289 83.48852539 C-9.61588508 86.55134627 -9.72786278 87.54037096 -9.82446289 91.27758789 C-9.84250977 92.18202637 -9.86055664 93.08646484 -9.87915039 94.01831055 C-9.90235352 94.70973145 -9.92555664 95.40115234 -9.94946289 96.11352539 C-14.63085543 96.13817827 -19.31221048 96.15636278 -23.99365234 96.16845703 C-25.58740904 96.17349696 -27.18116108 96.18032889 -28.77490234 96.18896484 C-31.06096542 96.20104538 -33.34696756 96.20675694 -35.63305664 96.21118164 C-36.34973007 96.21634293 -37.0664035 96.22150421 -37.80479431 96.2268219 C-39.52009961 96.22701802 -41.23527555 96.17544546 -42.94946289 96.11352539 C-43.94946289 95.11352539 -43.94946289 95.11352539 -44.26196289 91.30102539 C-44.21339883 88.27926144 -44.11276695 87.34591963 -42.32446289 84.80102539 C-39.94946289 83.11352539 -39.94946289 83.11352539 -37.05493164 82.05493164 C-32.66710908 79.31185263 -31.67578869 76.08325571 -29.88696289 71.36352539 C-29.54318604 70.5037207 -29.19940918 69.64391602 -28.84521484 68.75805664 C-26.47692306 62.7505735 -24.45017532 56.65791545 -22.48461914 50.50805664 C-19.65751514 42.11161837 -16.0589294 33.97555238 -12.68383789 25.78930664 C-10.01387821 19.30604464 -7.45428092 12.7850229 -4.9675293 6.22949219 C-2.6454933 0.15405816 -2.6454933 0.15405816 0 0 Z M7.05053711 20.11352539 C6.77081055 21.1202832 6.49108398 22.12704102 6.20288086 23.16430664 C3.02602131 34.37968565 -0.82933066 45.207293 -4.94946289 56.11352539 C3.63053711 56.11352539 12.21053711 56.11352539 21.05053711 56.11352539 C19.83366211 52.77227539 18.61678711 49.43102539 17.36303711 45.98852539 C14.22820818 37.37429404 11.11688671 28.7523757 8.05053711 20.11352539 C7.72053711 20.11352539 7.39053711 20.11352539 7.05053711 20.11352539 Z " fill="#EDEDED" transform="translate(551.949462890625,111.886474609375)"/>
<path d="M0 0 C9.24 0 18.48 0 28 0 C28.04898437 3.40699219 28.09796875 6.81398437 28.1484375 10.32421875 C28.20246135 13.6272416 28.2597634 16.93019245 28.31738281 20.2331543 C28.35564405 22.52704496 28.39050189 24.82099503 28.421875 27.11499023 C28.46758706 30.4141156 28.52557222 33.71283296 28.5859375 37.01171875 C28.59748871 38.03585373 28.60903992 39.05998871 28.62094116 40.11515808 C28.64081085 41.07577652 28.66068054 42.03639496 28.68115234 43.02612305 C28.69447601 43.86773483 28.70779968 44.70934662 28.7215271 45.57646179 C29.03995706 48.34774468 29.78561598 50.49422982 31 53 C32.72476911 53.95502158 32.72476911 53.95502158 35 54 C36.0725 54.103125 37.145 54.20625 38.25 54.3125 C42.84119592 53.92990034 47.63839282 52.36160718 51 49 C51.15996166 46.40846893 51.25938697 43.8404798 51.31640625 41.24609375 C51.33718735 40.47064713 51.35796844 39.6952005 51.37937927 38.89625549 C51.44495802 36.41009692 51.50379799 33.92382955 51.5625 31.4375 C51.60567733 29.75584796 51.64929136 28.07420706 51.69335938 26.39257812 C51.80064779 22.26183129 51.90189132 18.13097464 52 14 C50.700625 13.855625 49.40125 13.71125 48.0625 13.5625 C44.125 13.125 44.125 13.125 43 12 C43 8.04 43 4.08 43 0 C52.24 0 61.48 0 71 0 C71 17.82 71 35.64 71 54 C73.31 54.33 75.62 54.66 78 55 C80.28062828 58.42094242 80.21925007 59.68187222 80.125 63.6875 C80.10695313 64.68136719 80.08890625 65.67523438 80.0703125 66.69921875 C80.04710937 67.45847656 80.02390625 68.21773438 80 69 C76.22931168 69.086985 72.45888068 69.14038579 68.6875 69.1875 C67.61564453 69.21263672 66.54378906 69.23777344 65.43945312 69.26367188 C63.89741211 69.27817383 63.89741211 69.27817383 62.32421875 69.29296875 C60.9024231 69.31653442 60.9024231 69.31653442 59.4519043 69.34057617 C57 69 57 69 55.16723633 67.73168945 C54 66 54 66 54 62 C53.35675781 62.49371094 52.71351563 62.98742187 52.05078125 63.49609375 C43.93191974 69.25226232 37.01473442 71.02119263 27.12890625 69.58203125 C20.49145972 67.95472266 17.51016756 65.10090079 13.93121338 59.25390625 C10.99525573 53.94770534 10.45675466 49.68868067 10.609375 43.6875 C10.61503479 42.83317383 10.62069458 41.97884766 10.62652588 41.09863281 C10.6487261 38.39849247 10.6988888 35.69973193 10.75 33 C10.77008626 31.15757139 10.78833329 29.31512176 10.8046875 27.47265625 C10.84853682 22.98124785 10.91744748 18.49085698 11 14 C10.37351563 13.96261719 9.74703125 13.92523438 9.1015625 13.88671875 C8.28429687 13.82097656 7.46703125 13.75523437 6.625 13.6875 C5.81289062 13.62949219 5.00078125 13.57148438 4.1640625 13.51171875 C2 13 2 13 0 10 C0 6.7 0 3.4 0 0 Z " fill="#ECECEC" transform="translate(232,139)"/>
<path d="M0 0 C8.11537113 8.72280909 6.72984207 20.7506083 6.5546875 31.71484375 C6.53961501 33.36001381 6.52593114 35.0051972 6.51367188 36.65039062 C6.48086532 40.65137516 6.42922516 44.65171006 6.3671875 48.65234375 C7.7903125 48.80703125 7.7903125 48.80703125 9.2421875 48.96484375 C12.3671875 49.65234375 12.3671875 49.65234375 14.3671875 52.65234375 C14.5625 55.3515625 14.5625 55.3515625 14.4921875 58.33984375 C14.47414063 59.33371094 14.45609375 60.32757813 14.4375 61.3515625 C14.41429687 62.11082031 14.39109375 62.87007813 14.3671875 63.65234375 C11.47078632 63.73355126 8.57667838 63.79293796 5.6796875 63.83984375 C4.86306641 63.86498047 4.04644531 63.89011719 3.20507812 63.91601562 C-1.47641602 63.97287588 -4.9803125 63.96265434 -8.6328125 60.65234375 C-8.6328125 59.33234375 -8.6328125 58.01234375 -8.6328125 56.65234375 C-9.32246094 57.06226563 -10.01210938 57.4721875 -10.72265625 57.89453125 C-20.47872156 63.48854401 -28.40008898 65.94647034 -39.6328125 63.65234375 C-43.89123652 62.27484984 -46.76892801 59.99597549 -49.0703125 56.15234375 C-51.82054246 49.82207306 -51.5140422 42.82477067 -49.6953125 36.27734375 C-42.2790669 26.83848571 -31.16362419 24.51153872 -19.90234375 22.984375 C-17.11123307 22.70092887 -14.43404281 22.58376372 -11.6328125 22.65234375 C-12.56564479 16.06065347 -12.56564479 16.06065347 -15.1953125 10.02734375 C-19.0405746 7.85822154 -22.32884045 7.85434285 -26.6328125 8.65234375 C-28.55489926 9.44567042 -30.45139031 10.30329859 -32.3203125 11.21484375 C-35.48967242 12.75311049 -37.46986449 13.63725597 -41.0078125 13.96484375 C-45.03034727 11.95357636 -46.62033301 8.56154064 -48.6328125 4.65234375 C-35.57086612 -7.94760453 -14.88006532 -12.28139362 0 0 Z M-23.7578125 35.90234375 C-24.77101563 36.134375 -25.78421875 36.36640625 -26.828125 36.60546875 C-29.99804373 37.78866961 -31.50658902 39.04600529 -33.6328125 41.65234375 C-33.9628125 42.64234375 -34.2928125 43.63234375 -34.6328125 44.65234375 C-32.84686591 48.33562976 -32.84686591 48.33562976 -29.6328125 50.65234375 C-23.07202543 51.46743135 -19.03019029 50.39746303 -13.6328125 46.65234375 C-11.38956414 44.84041369 -11.38956414 44.84041369 -11.4375 42.26953125 C-11.46070313 41.36460937 -11.48390625 40.4596875 -11.5078125 39.52734375 C-11.52585937 38.61726563 -11.54390625 37.7071875 -11.5625 36.76953125 C-11.58570313 36.07085937 -11.60890625 35.3721875 -11.6328125 34.65234375 C-15.88917499 34.52528815 -19.61872965 34.90727012 -23.7578125 35.90234375 Z " fill="#EAEAEA" transform="translate(420.6328125,144.34765625)"/>
<path d="M0 0 C5.68182762 4.76719195 10.19838504 9.76720864 11.58984375 17.265625 C11.73403061 19.82216901 11.82025348 22.3340949 11.83984375 24.890625 C11.86046875 25.57125 11.88109375 26.251875 11.90234375 26.953125 C11.91796875 28.9296875 11.91796875 28.9296875 11.58984375 32.265625 C8.52213184 34.31076627 7.93416327 34.51389774 4.4855957 34.49267578 C3.66497147 34.49252472 2.84434723 34.49237366 1.99885559 34.49221802 C0.67684395 34.47673416 0.67684395 34.47673416 -0.671875 34.4609375 C-1.577668 34.4581076 -2.483461 34.45527771 -3.41670227 34.45236206 C-6.31048783 34.44116464 -9.20396419 34.41606089 -12.09765625 34.390625 C-14.05924032 34.38059463 -16.02082925 34.37146888 -17.98242188 34.36328125 C-22.79178585 34.34122673 -27.60091862 34.30669989 -32.41015625 34.265625 C-31.58373319 40.84408616 -30.27535204 43.85356019 -25.41015625 48.265625 C-20.97671778 51.09809958 -15.49752228 51.00678299 -10.41015625 50.265625 C-7.4691135 49.13566614 -4.73393191 47.83809064 -1.953125 46.359375 C0.85017813 45.15365322 2.57373516 44.85047241 5.58984375 45.265625 C10.48568894 49.84217594 10.48568894 49.84217594 10.77734375 53.828125 C7.9195172 59.69419002 2.29780428 62.30761706 -3.57421875 64.4765625 C-14.36076128 67.47777681 -25.71920204 67.06529876 -35.59765625 61.640625 C-36.87816027 60.86469787 -38.15302771 60.07887853 -39.41015625 59.265625 C-39.41015625 58.605625 -39.41015625 57.945625 -39.41015625 57.265625 C-40.07015625 57.265625 -40.73015625 57.265625 -41.41015625 57.265625 C-41.41015625 56.605625 -41.41015625 55.945625 -41.41015625 55.265625 C-42.07015625 55.265625 -42.73015625 55.265625 -43.41015625 55.265625 C-50.01279183 44.93106496 -52.99162958 33.66221239 -50.94140625 21.48046875 C-48.69862382 11.7750948 -43.41278015 5.05937986 -35.41015625 -0.734375 C-24.97130611 -6.78890808 -9.98756586 -7.18716247 0 0 Z M-28.41015625 11.265625 C-31.60997523 14.93371017 -32.41015625 16.36584816 -32.41015625 21.265625 C-23.17015625 21.265625 -13.93015625 21.265625 -4.41015625 21.265625 C-4.71678411 14.50997754 -4.71678411 14.50997754 -7.97265625 11.390625 C-14.34681853 6.80729879 -21.78809034 7.64885816 -28.41015625 11.265625 Z " fill="#ECECEC" transform="translate(218.41015625,142.734375)"/>
<path d="M0 0 C12.54 0 25.08 0 38 0 C38 3.63 38 7.26 38 11 C31.25 14 31.25 14 29 14 C29 36.11 29 58.22 29 81 C31.64 81.33 34.28 81.66 37 82 C39.09231398 86.18462795 38 91.32144372 38 96 C25.46 96 12.92 96 0 96 C0 84 0 84 2 82 C5.465 81.505 5.465 81.505 9 81 C9 58.89 9 36.78 9 14 C6.36 13.34 3.72 12.68 1 12 C0.67 11.67 0.34 11.34 0 11 C0 7.37 0 3.74 0 0 Z " fill="#ECECEC" transform="translate(615,112)"/>
<path d="M0 0 C8.91 0 17.82 0 27 0 C27 27.72 27 55.44 27 84 C29.97 84.33 32.94 84.66 36 85 C39.30823887 88.30823887 37 94.32144372 37 99 C24.79 99 12.58 99 0 99 C0 87 0 87 1 85 C5.455 84.505 5.455 84.505 10 84 C10 60.9 10 37.8 10 14 C7.36 13.67 4.72 13.34 2 13 C1.34 12.34 0.68 11.68 0 11 C0 7.37 0 3.74 0 0 Z " fill="#F0F0F0" transform="translate(438,109)"/>
<path d="M0 0 C0.92941406 -0.00515625 1.85882813 -0.0103125 2.81640625 -0.015625 C5.4375 0.25 5.4375 0.25 9.4375 2.25 C8.7775 6.87 8.1175 11.49 7.4375 16.25 C2.92524065 18.05490374 1.45854986 18.43514178 -3.0625 18.1875 C-7.44354353 18.11683801 -10.18157975 18.18604102 -13.5625 21.25 C-16.47073381 25.24130019 -16.96633279 28.18400881 -17.07421875 33.08203125 C-17.10966797 34.37431641 -17.14511719 35.66660156 -17.18164062 36.99804688 C-17.20473681 38.35285934 -17.22751935 39.70767718 -17.25 41.0625 C-17.28319761 42.43688117 -17.31768953 43.81123171 -17.35351562 45.18554688 C-17.43591264 48.54028234 -17.50509395 51.89475904 -17.5625 55.25 C-15.54427083 55.41276042 -13.52604167 55.57552083 -11.5078125 55.73828125 C-9.5625 56.25 -9.5625 56.25 -7.5625 59.25 C-7.5625 62.88 -7.5625 66.51 -7.5625 70.25 C-20.1025 70.25 -32.6425 70.25 -45.5625 70.25 C-45.5625 58.25 -45.5625 58.25 -43.5625 56.25 C-40.9225 55.92 -38.2825 55.59 -35.5625 55.25 C-35.5625 42.05 -35.5625 28.85 -35.5625 15.25 C-37.5425 15.25 -39.5225 15.25 -41.5625 15.25 C-43.921875 14.10546875 -43.921875 14.10546875 -45.5625 12.25 C-45.953125 9.55078125 -45.953125 9.55078125 -45.8125 6.5625 C-45.77640625 5.56863281 -45.7403125 4.57476562 -45.703125 3.55078125 C-45.65671875 2.79152344 -45.6103125 2.03226563 -45.5625 1.25 C-41.60422765 1.19214353 -37.6460633 1.15645283 -33.6875 1.125 C-32.55957031 1.10824219 -31.43164062 1.09148437 -30.26953125 1.07421875 C-29.19316406 1.06777344 -28.11679687 1.06132812 -27.0078125 1.0546875 C-26.01281738 1.04421387 -25.01782227 1.03374023 -23.99267578 1.02294922 C-21.5625 1.25 -21.5625 1.25 -19.5625 3.25 C-19.16485737 5.23821313 -18.82474651 7.23944339 -18.5625 9.25 C-18.04300781 8.76789063 -17.52351563 8.28578125 -16.98828125 7.7890625 C-16.29089844 7.15742188 -15.59351563 6.52578125 -14.875 5.875 C-14.19050781 5.24851563 -13.50601563 4.62203125 -12.80078125 3.9765625 C-8.69749573 0.81137541 -5.13080034 -0.02854409 0 0 Z " fill="#EDEDED" transform="translate(360.5625,137.75)"/>
</svg>
