<?xml version="1.0" encoding="UTF-8"?>
<svg xmlns="http://www.w3.org/2000/svg" xmlns:xlink="http://www.w3.org/1999/xlink" width="1100px" height="330px" viewBox="0 0 1100 330" version="1.1">
<g id="surface1">
<path style=" stroke:none;fill-rule:nonzero;fill:rgb(99.607843%,99.607843%,99.607843%);fill-opacity:1;" d="M 41.058594 52.0625 C 42.921875 52.042969 44.785156 52.007812 46.648438 51.960938 C 49.339844 51.890625 52.03125 51.863281 54.722656 51.847656 C 55.546875 51.816406 56.375 51.789062 57.226562 51.761719 C 63.914062 51.789062 66.472656 53.867188 71.003906 58.75 C 72.839844 60.976562 72.839844 60.976562 74.210938 63.03125 C 74.742188 63.8125 75.269531 64.589844 75.816406 65.394531 C 76.640625 66.628906 76.640625 66.628906 77.480469 67.890625 C 82.363281 75.050781 87.371094 82.046875 92.613281 88.90625 C 103.019531 102.542969 113.074219 116.464844 123.148438 130.386719 C 131.820312 142.371094 140.527344 154.324219 149.394531 166.144531 C 151.242188 168.644531 153.03125 171.195312 154.816406 173.75 C 155.199219 142.398438 155.582031 111.050781 155.980469 78.75 C 150.984375 78.335938 145.992188 77.925781 140.847656 77.5 C 136.191406 75 136.191406 75 135.027344 72.5 C 135.027344 65.898438 135.027344 59.300781 135.027344 52.5 C 157.304688 52.5 179.585938 52.5 202.539062 52.5 C 202.539062 59.101562 202.539062 65.699219 202.539062 72.5 C 196.71875 77.5 196.71875 77.5 185.078125 78.75 C 185.078125 130.3125 185.078125 181.875 185.078125 235 C 164.128906 235 164.128906 235 158.308594 231.25 C 156.203125 228.867188 154.261719 226.519531 152.339844 223.984375 C 151.789062 223.269531 151.238281 222.554688 150.671875 221.820312 C 145.089844 214.554688 139.679688 207.144531 134.300781 199.707031 C 131.644531 196.042969 128.96875 192.398438 126.296875 188.75 C 125.230469 187.292969 124.164062 185.832031 123.09375 184.375 C 122.304688 183.292969 122.304688 183.292969 121.496094 182.1875 C 116.691406 175.625 116.691406 175.625 115.09375 173.4375 C 114.023438 171.976562 112.957031 170.519531 111.890625 169.058594 C 109.234375 165.429688 106.578125 161.800781 103.929688 158.167969 C 102.875 156.722656 101.816406 155.273438 100.761719 153.828125 C 100.238281 153.113281 99.714844 152.394531 99.175781 151.660156 C 96.371094 147.824219 93.550781 144.011719 90.703125 140.214844 C 90.097656 139.410156 89.496094 138.601562 88.871094 137.773438 C 87.734375 136.257812 86.59375 134.746094 85.453125 133.234375 C 80.382812 126.484375 75.777344 119.546875 71.003906 112.5 C 71.003906 144.261719 71.003906 176.023438 71.003906 208.75 C 75.613281 209.164062 80.222656 209.574219 84.972656 210 C 90.792969 213.75 90.792969 213.75 91.957031 216.25 C 92.039062 219.21875 92.054688 222.1875 92.03125 225.15625 C 92.019531 226.757812 92.007812 228.359375 92 230.011719 C 91.984375 231.242188 91.972656 232.476562 91.957031 233.75 C 88.375 235.03125 85.945312 235.152344 82.191406 235.140625 C 80.910156 235.140625 79.628906 235.140625 78.308594 235.140625 C 76.925781 235.136719 75.542969 235.128906 74.121094 235.121094 C 71.996094 235.121094 71.996094 235.121094 69.828125 235.117188 C 65.296875 235.109375 60.765625 235.09375 56.238281 235.078125 C 53.167969 235.070312 50.101562 235.066406 47.03125 235.0625 C 39.503906 235.046875 31.972656 235.027344 24.445312 235 C 22.316406 228.148438 22.359375 220.53125 24.445312 213.671875 C 29.292969 208.628906 35.4375 208.75 41.90625 208.75 C 41.90625 165.851562 41.90625 122.949219 41.90625 78.75 C 38.0625 78.335938 34.222656 77.925781 30.265625 77.5 C 26.699219 75.78125 26.699219 75.78125 24.445312 73.75 C 23.128906 69.507812 23.125 66.183594 23.136719 61.71875 C 23.128906 59.527344 23.128906 59.527344 23.125 57.296875 C 23.476562 49.253906 35.09375 52.109375 41.058594 52.0625 Z M 41.058594 52.0625 "/>
<path style=" stroke:none;fill-rule:nonzero;fill:rgb(99.215686%,99.215686%,99.215686%);fill-opacity:1;" d="M 889.3125 52.5 C 900.453125 52.5 911.589844 52.5 923.070312 52.5 C 928.3125 65.164062 928.3125 65.164062 930.703125 71.601562 C 931.238281 73.042969 931.777344 74.484375 932.328125 75.972656 C 932.90625 77.523438 933.480469 79.074219 934.054688 80.625 C 934.667969 82.28125 935.285156 83.941406 935.902344 85.597656 C 947.128906 115.851562 958.179688 146.179688 969.1875 176.523438 C 969.566406 177.570312 969.945312 178.617188 970.339844 179.695312 C 971.070312 181.710938 971.800781 183.730469 972.53125 185.746094 C 974.761719 191.890625 977.039062 198.015625 979.390625 204.109375 C 980.105469 206.25 980.105469 206.25 980.105469 208.75 C 980.792969 208.976562 981.484375 209.203125 982.191406 209.4375 C 987.304688 211.183594 992 212.851562 996.402344 216.25 C 998 219.679688 997.71875 222.503906 997.710938 226.328125 C 997.714844 227.683594 997.71875 229.039062 997.722656 230.433594 C 997.566406 233.75 997.566406 233.75 996.402344 235 C 994.617188 235.117188 992.824219 235.148438 991.035156 235.140625 C 989.890625 235.140625 988.75 235.140625 987.574219 235.140625 C 986.332031 235.136719 985.089844 235.128906 983.8125 235.121094 C 981.914062 235.121094 981.914062 235.121094 979.980469 235.117188 C 975.921875 235.109375 971.867188 235.09375 967.8125 235.078125 C 965.066406 235.070312 962.324219 235.066406 959.582031 235.0625 C 952.84375 235.046875 946.105469 235.027344 939.363281 235 C 938.117188 219.257812 938.117188 219.257812 941.179688 214.945312 C 943.4375 213.28125 943.4375 213.28125 947.511719 211.25 C 947.265625 210.582031 947.019531 209.914062 946.765625 209.222656 C 945.652344 206.203125 944.546875 203.179688 943.4375 200.15625 C 943.050781 199.105469 942.660156 198.050781 942.261719 196.96875 C 941.894531 195.960938 941.527344 194.953125 941.148438 193.914062 C 940.636719 192.523438 940.636719 192.523438 940.113281 191.097656 C 939.363281 188.75 939.363281 188.75 939.363281 186.25 C 917.46875 186.25 895.574219 186.25 873.015625 186.25 C 872.632812 188.726562 872.246094 191.199219 871.851562 193.75 C 870.910156 196.84375 869.914062 199.914062 868.867188 202.96875 C 868.597656 203.769531 868.324219 204.570312 868.042969 205.394531 C 867.378906 207.347656 866.707031 209.300781 866.03125 211.25 C 869.488281 213.726562 869.488281 213.726562 873.015625 216.25 C 873.015625 222.4375 873.015625 228.625 873.015625 235 C 854.195312 235 835.371094 235 815.980469 235 C 815.980469 229.226562 815.980469 223.449219 815.980469 217.5 C 820.796875 212.777344 823.421875 211.613281 829.730469 210.390625 C 833.492188 209.269531 833.492188 209.269531 834.257812 206.707031 C 834.460938 205.785156 834.664062 204.863281 834.871094 203.910156 C 836.511719 197.445312 838.621094 191.28125 840.894531 185.046875 C 841.273438 184.019531 841.648438 182.988281 842.035156 181.925781 C 843.238281 178.625 844.449219 175.328125 845.660156 172.03125 C 846.507812 169.714844 847.355469 167.398438 848.199219 165.082031 C 850.277344 159.398438 852.359375 153.714844 854.441406 148.035156 C 856.5 142.417969 858.554688 136.800781 860.613281 131.183594 C 861.601562 128.476562 862.59375 125.765625 863.589844 123.058594 C 868.800781 108.828125 873.953125 94.574219 879.105469 80.316406 C 879.4375 79.390625 879.773438 78.46875 880.117188 77.515625 C 880.734375 75.804688 881.351562 74.09375 881.972656 72.382812 C 884.375 65.734375 886.84375 59.121094 889.3125 52.5 Z M 905.609375 88.75 C 905.332031 89.65625 905.058594 90.558594 904.777344 91.492188 C 894.964844 123.699219 894.964844 123.699219 889.757812 137.28125 C 886.761719 145.199219 884.710938 152.941406 882.328125 161.25 C 898.460938 161.25 914.59375 161.25 931.21875 161.25 C 921.335938 130.664062 921.335938 130.664062 910.621094 100.410156 C 909.210938 96.558594 907.953125 92.6875 906.773438 88.75 C 906.386719 88.75 906.003906 88.75 905.609375 88.75 Z M 905.609375 88.75 "/>
<path style=" stroke:none;fill-rule:nonzero;fill:rgb(99.215686%,99.215686%,99.215686%);fill-opacity:1;" d="M 323.597656 105 C 339.347656 105 355.097656 105 371.324219 105 C 371.386719 114.59375 371.386719 114.59375 371.453125 124.378906 C 371.488281 128.441406 371.527344 132.503906 371.566406 136.566406 C 371.628906 143.003906 371.6875 149.445312 371.726562 155.886719 C 371.757812 161.082031 371.804688 166.277344 371.863281 171.472656 C 371.882812 173.453125 371.894531 175.429688 371.902344 177.40625 C 371.914062 180.1875 371.945312 182.964844 371.984375 185.746094 C 372.003906 188.113281 372.003906 188.113281 372.023438 190.53125 C 372.683594 196.910156 374.398438 201.796875 378.378906 206.71875 C 385.117188 210.722656 392.039062 210.71875 399.40625 208.671875 C 405.167969 206.863281 410.480469 203.667969 414.390625 198.75 C 415.75 193.589844 415.640625 188.585938 415.554688 183.25 C 415.566406 181.765625 415.582031 180.277344 415.59375 178.742188 C 415.625 174.003906 415.589844 169.269531 415.554688 164.53125 C 415.566406 161.3125 415.578125 158.09375 415.597656 154.878906 C 415.632812 147 415.613281 139.125 415.554688 131.25 C 414.839844 131.179688 414.125 131.109375 413.386719 131.039062 C 411.976562 130.890625 411.976562 130.890625 410.535156 130.738281 C 409.605469 130.640625 408.671875 130.546875 407.710938 130.449219 C 404.28125 129.863281 401.984375 128.535156 399.257812 126.25 C 397.476562 122.417969 397.976562 118.414062 398.023438 114.21875 C 398.027344 113.335938 398.03125 112.453125 398.039062 111.542969 C 398.050781 109.363281 398.074219 107.179688 398.09375 105 C 404.871094 104.96875 411.644531 104.945312 418.421875 104.929688 C 420.726562 104.925781 423.035156 104.917969 425.34375 104.90625 C 428.648438 104.890625 431.957031 104.882812 435.265625 104.878906 C 436.304688 104.871094 437.34375 104.863281 438.410156 104.859375 C 440.882812 104.859375 443.351562 104.921875 445.820312 105 C 447.835938 107.164062 447.125 109.945312 447.128906 112.832031 C 447.121094 114.246094 447.121094 114.246094 447.117188 115.6875 C 447.117188 116.675781 447.117188 117.660156 447.117188 118.679688 C 447.117188 121.960938 447.105469 125.238281 447.097656 128.519531 C 447.09375 130.789062 447.09375 133.058594 447.09375 135.324219 C 447.089844 141.308594 447.078125 147.289062 447.0625 153.273438 C 447.050781 159.371094 447.046875 165.46875 447.039062 171.570312 C 447.027344 183.546875 447.007812 195.523438 446.984375 207.5 C 448.601562 208.019531 448.601562 208.019531 450.253906 208.550781 C 451.648438 209.003906 453.042969 209.457031 454.476562 209.921875 C 455.867188 210.371094 457.257812 210.820312 458.691406 211.285156 C 462.117188 212.5 462.117188 212.5 463.28125 213.75 C 463.367188 217.328125 463.386719 220.875 463.351562 224.453125 C 463.347656 225.460938 463.34375 226.46875 463.335938 227.507812 C 463.324219 230.003906 463.300781 232.503906 463.28125 235 C 457.894531 235.125 452.511719 235.214844 447.125 235.273438 C 445.292969 235.300781 443.460938 235.332031 441.628906 235.378906 C 438.996094 235.4375 436.359375 235.464844 433.726562 235.488281 C 432.910156 235.515625 432.09375 235.539062 431.25 235.566406 C 427.351562 235.570312 425.242188 235.296875 422.078125 232.761719 C 419.632812 229.140625 418.8125 225.578125 417.882812 221.25 C 417.347656 221.71875 416.808594 222.1875 416.253906 222.671875 C 402.398438 234.347656 389.863281 237.8125 372.488281 236.25 C 361.558594 233.929688 353.445312 227.625 347.097656 217.890625 C 341.246094 206.601562 340.550781 194.1875 340.71875 181.542969 C 340.722656 180.09375 340.726562 178.644531 340.730469 177.152344 C 340.75 172.578125 340.796875 168.007812 340.839844 163.4375 C 340.859375 160.3125 340.875 157.191406 340.886719 154.066406 C 340.925781 146.460938 340.984375 138.855469 341.058594 131.25 C 340.285156 131.203125 339.511719 131.15625 338.714844 131.109375 C 337.6875 131.027344 336.660156 130.945312 335.601562 130.859375 C 334.589844 130.785156 333.578125 130.714844 332.53125 130.640625 C 329.417969 130 329.417969 130 323.597656 126.25 C 323.597656 119.238281 323.597656 112.226562 323.597656 105 Z M 323.597656 105 "/>
<path style=" stroke:none;fill-rule:nonzero;fill:rgb(99.215686%,99.215686%,99.215686%);fill-opacity:1;" d="M 649.742188 109.609375 C 659.46875 118.199219 666.007812 127.804688 668.148438 141.25 C 668.246094 143.550781 668.285156 145.851562 668.28125 148.15625 C 668.28125 150.183594 668.28125 150.183594 668.28125 152.25 C 668.273438 153.695312 668.269531 155.136719 668.261719 156.625 C 668.261719 158.117188 668.257812 159.605469 668.257812 161.140625 C 668.25 165.890625 668.234375 170.640625 668.222656 175.390625 C 668.214844 178.613281 668.210938 181.835938 668.203125 185.0625 C 668.191406 192.957031 668.171875 200.855469 668.148438 208.75 C 668.949219 208.871094 669.746094 208.996094 670.570312 209.121094 C 671.621094 209.308594 672.667969 209.496094 673.75 209.6875 C 675.308594 209.949219 675.308594 209.949219 676.902344 210.214844 C 680.445312 211.484375 681.472656 212.785156 683.28125 216.25 C 683.664062 220.523438 683.664062 220.523438 683.570312 225.234375 C 683.554688 226.800781 683.535156 228.363281 683.515625 229.976562 C 683.28125 233.75 683.28125 233.75 682.117188 235 C 677.421875 235.355469 672.707031 235.289062 668.003906 235.3125 C 666.03125 235.351562 666.03125 235.351562 664.019531 235.390625 C 651.003906 235.457031 651.003906 235.457031 644.867188 231.25 C 643.5625 228.421875 643.5625 228.421875 643.195312 225.390625 C 643.050781 224.378906 642.910156 223.371094 642.761719 222.328125 C 642.6875 221.558594 642.617188 220.792969 642.539062 220 C 642.003906 220.46875 641.464844 220.9375 640.910156 221.421875 C 626.617188 233.464844 612.871094 237.4375 594.816406 236.25 C 585.953125 234.878906 579.800781 230.921875 573.863281 223.75 C 567.34375 214.027344 567.210938 204.164062 568.042969 192.5 C 570.210938 182.765625 577.835938 176.367188 585.269531 170.980469 C 590.46875 167.902344 596.167969 166.085938 601.800781 164.140625 C 602.574219 163.871094 603.347656 163.601562 604.144531 163.328125 C 612.851562 160.453125 621.246094 159.804688 630.316406 159.921875 C 631.585938 159.929688 631.585938 159.929688 632.882812 159.9375 C 634.9375 159.953125 636.992188 159.976562 639.046875 160 C 638.75 157.027344 638.429688 154.0625 638.101562 151.09375 C 638.019531 150.261719 637.9375 149.429688 637.855469 148.574219 C 637.0625 141.644531 635.695312 135.84375 630.464844 131.40625 C 621.425781 128.394531 613.253906 128.425781 604.703125 133.078125 C 603.308594 133.886719 601.910156 134.703125 600.519531 135.519531 C 595.238281 138.625 591.53125 140.234375 585.503906 140 C 580.117188 137.984375 577.789062 133.75 574.816406 128.792969 C 573.863281 126.25 573.863281 126.25 574.007812 123.703125 C 577.390625 115.558594 587.730469 110.839844 594.976562 107.582031 C 613.585938 100.128906 632.019531 99.535156 649.742188 109.609375 Z M 598.378906 191.09375 C 595.875 196.476562 595.671875 200.035156 597.144531 205.859375 C 599.460938 209.980469 600.941406 211.667969 605.199219 213.203125 C 614.65625 215.339844 622.421875 213.507812 630.898438 208.75 C 631.738281 208.335938 632.578125 207.921875 633.441406 207.496094 C 636.300781 205.625 637.488281 204.472656 639.046875 201.25 C 640.019531 194.214844 639.507812 187.0625 639.046875 180 C 625.632812 179.273438 608.527344 180.546875 598.378906 191.09375 Z M 598.378906 191.09375 "/>
<path style=" stroke:none;fill-rule:nonzero;fill:rgb(99.215686%,99.215686%,99.215686%);fill-opacity:1;" d="M 295.734375 111.015625 C 297.292969 112.300781 298.824219 113.625 300.316406 115 C 301.039062 115.625 301.765625 116.253906 302.507812 116.898438 C 313.585938 127.484375 317.898438 143.425781 318.90625 158.8125 C 318.957031 163.929688 318.269531 167.699219 316.613281 172.5 C 312.484375 175.453125 310.777344 175.304688 305.886719 175.285156 C 304.394531 175.285156 302.902344 175.285156 301.367188 175.285156 C 299.738281 175.269531 298.113281 175.257812 296.484375 175.242188 C 294.820312 175.238281 293.152344 175.234375 291.488281 175.234375 C 287.109375 175.222656 282.726562 175.199219 278.347656 175.171875 C 273.878906 175.144531 269.40625 175.132812 264.933594 175.121094 C 256.164062 175.09375 247.394531 175.050781 238.625 175 C 239.171875 177.621094 239.726562 180.238281 240.28125 182.855469 C 240.585938 184.316406 240.894531 185.773438 241.210938 187.277344 C 243.230469 196.128906 246.855469 201.183594 253.757812 206.25 C 260.984375 210.714844 268.890625 211.152344 277.035156 210 C 283.621094 207.910156 289.773438 205.085938 295.863281 201.6875 C 299.152344 200 299.152344 200 303.082031 199.609375 C 309.636719 202.160156 312.710938 207.753906 316.613281 213.75 C 312.527344 223.558594 303.457031 228.667969 294.496094 232.5 C 276.183594 239.289062 255.199219 238.648438 237.773438 229.601562 C 224.296875 221.585938 214.609375 208.914062 210.210938 193.003906 C 205.230469 171.222656 205.839844 148.964844 216.792969 129.328125 C 234 103.398438 269.84375 93.226562 295.734375 111.015625 Z M 246.414062 135 C 242.089844 140.492188 239.457031 146.582031 238.625 153.75 C 244.027344 154.886719 249.257812 155.183594 254.742188 155.164062 C 256.027344 155.167969 256.027344 155.167969 257.332031 155.167969 C 259.128906 155.171875 260.925781 155.167969 262.726562 155.164062 C 265.464844 155.15625 268.207031 155.164062 270.945312 155.171875 C 272.699219 155.171875 274.453125 155.167969 276.203125 155.164062 C 277.425781 155.167969 277.425781 155.167969 278.671875 155.171875 C 282.929688 155.152344 286.863281 154.832031 291.003906 153.75 C 289.789062 145.066406 288.636719 137.804688 281.976562 131.953125 C 270.433594 123.398438 256.472656 124.523438 246.414062 135 Z M 246.414062 135 "/>
<path style=" stroke:none;fill-rule:nonzero;fill:rgb(99.215686%,99.607843%,99.215686%);fill-opacity:1;" d="M 1004.550781 52.5 C 1027.214844 52.5 1049.878906 52.5 1073.226562 52.5 C 1073.226562 59.101562 1073.226562 65.699219 1073.226562 72.5 C 1067.40625 77.5 1067.40625 77.5 1055.765625 78.75 C 1055.765625 121.648438 1055.765625 164.550781 1055.765625 208.75 C 1060.375 209.574219 1064.984375 210.398438 1069.734375 211.25 C 1073.667969 216.882812 1073.648438 218.453125 1073.519531 225.234375 C 1073.5 226.800781 1073.484375 228.363281 1073.464844 229.976562 C 1073.226562 233.75 1073.226562 233.75 1072.0625 235 C 1069.957031 235.117188 1067.84375 235.148438 1065.734375 235.140625 C 1063.707031 235.140625 1063.707031 235.140625 1061.636719 235.140625 C 1059.433594 235.132812 1059.433594 235.132812 1057.179688 235.121094 C 1055.683594 235.121094 1054.1875 235.117188 1052.644531 235.117188 C 1048.660156 235.113281 1044.671875 235.101562 1040.6875 235.085938 C 1036.621094 235.074219 1032.558594 235.066406 1028.492188 235.0625 C 1020.511719 235.046875 1012.53125 235.027344 1004.550781 235 C 1004.457031 231.976562 1004.386719 228.960938 1004.332031 225.9375 C 1004.304688 225.085938 1004.273438 224.234375 1004.242188 223.355469 C 1004.1875 219.375 1004.3125 216.699219 1006.171875 213.210938 C 1008.324219 210.953125 1009.699219 210.339844 1012.625 209.6875 C 1013.40625 209.5 1014.183594 209.3125 1014.984375 209.121094 C 1017.355469 208.75 1017.355469 208.75 1022.011719 208.75 C 1022.011719 165.851562 1022.011719 122.949219 1022.011719 78.75 C 1018.554688 78.335938 1015.097656 77.925781 1011.535156 77.5 C 1006.175781 74.742188 1006.175781 74.742188 1004.550781 71.25 C 1004.550781 65.0625 1004.550781 58.875 1004.550781 52.5 Z M 1004.550781 52.5 "/>
<path style=" stroke:none;fill-rule:nonzero;fill:rgb(99.607843%,99.607843%,99.607843%);fill-opacity:1;" d="M 690.265625 47.5 C 706.015625 47.5 721.761719 47.5 737.988281 47.5 C 737.988281 100.710938 737.988281 153.925781 737.988281 208.75 C 742.597656 209.574219 747.207031 210.398438 751.957031 211.25 C 753.109375 212.488281 754.261719 213.726562 755.449219 215 C 755.449219 221.601562 755.449219 228.199219 755.449219 235 C 733.9375 235 712.425781 235 690.265625 235 C 690.265625 228.398438 690.265625 221.800781 690.265625 215 C 694.230469 210.742188 696.519531 210.046875 701.90625 208.75 C 703.824219 208.75 705.746094 208.75 707.726562 208.75 C 707.726562 164.199219 707.726562 119.648438 707.726562 73.75 C 703.882812 73.335938 700.042969 72.925781 696.085938 72.5 C 694.164062 70.851562 692.242188 69.199219 690.265625 67.5 C 690.265625 60.898438 690.265625 54.300781 690.265625 47.5 Z M 690.265625 47.5 "/>
<path style=" stroke:none;fill-rule:nonzero;fill:rgb(99.215686%,99.215686%,99.215686%);fill-opacity:1;" d="M 565.714844 106.25 C 566.082031 112.847656 565.472656 118.953125 564.40625 125.46875 C 564.160156 126.972656 563.917969 128.480469 563.667969 130.03125 C 562.222656 133.75 562.222656 133.75 559.175781 135.523438 C 553.894531 136.5 548.824219 136.328125 543.507812 136.042969 C 536.902344 135.847656 532.394531 137.265625 527.5 142.105469 C 526.957031 142.828125 526.410156 143.550781 525.847656 144.296875 C 525.007812 145.378906 525.007812 145.378906 524.15625 146.480469 C 521.3125 150.757812 520.03125 154.085938 519.945312 159.367188 C 519.921875 160.46875 519.898438 161.566406 519.875 162.703125 C 519.855469 164.46875 519.855469 164.46875 519.835938 166.269531 C 519.8125 167.484375 519.789062 168.695312 519.765625 169.949219 C 519.699219 173.820312 519.644531 177.691406 519.589844 181.5625 C 519.546875 184.191406 519.5 186.816406 519.453125 189.445312 C 519.34375 195.878906 519.242188 202.3125 519.152344 208.75 C 520.121094 208.871094 521.089844 208.996094 522.085938 209.121094 C 523.351562 209.308594 524.617188 209.496094 525.917969 209.6875 C 527.804688 209.949219 527.804688 209.949219 529.726562 210.214844 C 533.121094 211.25 533.121094 211.25 536.613281 216.25 C 536.613281 222.4375 536.613281 228.625 536.613281 235 C 515.101562 235 493.589844 235 471.429688 235 C 471.429688 228.398438 471.429688 221.800781 471.429688 215 C 475.394531 210.742188 477.683594 210.046875 483.070312 208.75 C 484.988281 208.75 486.910156 208.75 488.890625 208.75 C 488.890625 183.175781 488.890625 157.601562 488.890625 131.25 C 485.046875 130.835938 481.207031 130.425781 477.25 130 C 473.632812 128.066406 473.632812 128.066406 471.429688 125 C 470.996094 121.292969 470.867188 118.351562 471.066406 114.6875 C 471.089844 113.757812 471.117188 112.824219 471.144531 111.867188 C 471.210938 109.574219 471.316406 107.289062 471.429688 105 C 477 104.90625 482.574219 104.839844 488.144531 104.792969 C 490.042969 104.773438 491.9375 104.75 493.832031 104.71875 C 496.558594 104.671875 499.28125 104.648438 502.007812 104.632812 C 502.855469 104.613281 503.703125 104.59375 504.574219 104.574219 C 510.433594 104.574219 510.433594 104.574219 513.246094 106.671875 C 515.113281 109.769531 515.707031 112.898438 516.460938 116.484375 C 516.753906 117.84375 517.046875 119.199219 517.347656 120.601562 C 517.558594 121.640625 517.769531 122.679688 517.988281 123.75 C 518.636719 122.921875 519.285156 122.089844 519.953125 121.234375 C 532.640625 105.472656 546.894531 97.429688 565.714844 106.25 Z M 565.714844 106.25 "/>
</g>
</svg>
