<?xml version="1.0" encoding="UTF-8"?>
<svg version="1.1" xmlns="http://www.w3.org/2000/svg" width="945" height="264">
<path d="M0 0 C1.60138532 -0.0165108 3.20269843 -0.04373656 4.80371094 -0.08203125 C7.11602901 -0.13705796 9.42661552 -0.15871549 11.73950195 -0.17333984 C12.44910568 -0.19600922 13.15870941 -0.21867859 13.88981628 -0.24203491 C19.63550371 -0.21784758 21.83373579 1.44360125 25.7277832 5.35009766 C27.30419922 7.13256836 27.30419922 7.13256836 28.48168945 8.77587891 C28.93680908 9.39930176 29.39192871 10.02272461 29.86083984 10.66503906 C30.56841431 11.65383057 30.56841431 11.65383057 31.2902832 12.66259766 C35.48409232 18.38966285 39.78705391 23.98774998 44.2902832 29.47509766 C53.22945154 40.3856365 61.86841545 51.52331435 70.52294922 62.66015625 C77.97441767 72.24632541 85.45510739 81.80817387 93.0715332 91.26416016 C94.65986165 93.26455495 96.19521282 95.30667048 97.7277832 97.35009766 C98.0577832 72.27009766 98.3877832 47.19009766 98.7277832 21.35009766 C94.4377832 21.02009766 90.1477832 20.69009766 85.7277832 20.35009766 C81.7277832 18.35009766 81.7277832 18.35009766 80.7277832 16.35009766 C80.7277832 11.07009766 80.7277832 5.79009766 80.7277832 0.35009766 C99.8677832 0.35009766 119.0077832 0.35009766 138.7277832 0.35009766 C138.7277832 5.63009766 138.7277832 10.91009766 138.7277832 16.35009766 C133.7277832 20.35009766 133.7277832 20.35009766 123.7277832 21.35009766 C123.7277832 62.60009766 123.7277832 103.85009766 123.7277832 146.35009766 C105.7277832 146.35009766 105.7277832 146.35009766 100.7277832 143.35009766 C98.92143956 141.44527733 97.25408838 139.56636993 95.6027832 137.53759766 C95.12905273 136.9664624 94.65532227 136.39532715 94.16723633 135.80688477 C89.37328946 129.99414503 84.72632511 124.06475225 80.1027832 118.11621094 C77.82149457 115.18601883 75.52385876 112.26870649 73.2277832 109.35009766 C72.31103746 108.18349312 71.3943708 107.01682644 70.4777832 105.85009766 C69.7971582 104.98384766 69.7971582 104.98384766 69.1027832 104.10009766 C64.9777832 98.85009766 64.9777832 98.85009766 63.60302734 97.1003418 C62.68563312 95.93279356 61.76815254 94.76531317 60.85058594 93.59790039 C58.56934076 90.69526975 56.28957106 87.79150492 54.01293945 84.88525391 C53.10549631 83.72761642 52.19794405 82.57006446 51.2902832 81.41259766 C50.84128662 80.83985107 50.39229004 80.26710449 49.9296875 79.67700195 C47.52088303 76.61066706 45.0964 73.55814284 42.6496582 70.52197266 C42.13072998 69.87736084 41.61180176 69.23274902 41.07714844 68.56860352 C40.09985427 67.35657245 39.12043505 66.1462495 38.13818359 64.93823242 C33.78275447 59.53694986 29.82877506 53.98896146 25.7277832 48.35009766 C25.7277832 73.76009766 25.7277832 99.17009766 25.7277832 125.35009766 C29.6877832 125.68009766 33.6477832 126.01009766 37.7277832 126.35009766 C42.7277832 129.35009766 42.7277832 129.35009766 43.7277832 131.35009766 C43.79894702 133.72412266 43.81187405 136.10010442 43.7902832 138.47509766 C43.78125977 139.75642578 43.77223633 141.03775391 43.76293945 142.35791016 C43.75133789 143.34533203 43.73973633 144.33275391 43.7277832 145.35009766 C40.64940526 146.37622364 38.56204025 146.47099985 35.33837891 146.46362305 C34.23746414 146.46354752 33.13654938 146.46347198 32.00227356 146.46339417 C30.81469955 146.45823288 29.62712555 146.45307159 28.40356445 146.44775391 C26.57875801 146.44563148 26.57875801 146.44563148 24.71708679 146.44346619 C20.8247941 146.43786078 16.93255856 146.42530732 13.0402832 146.41259766 C10.40421632 146.40758335 7.76814855 146.40302033 5.13208008 146.39892578 C-1.33603844 146.38788959 -7.80412354 146.37114615 -14.2722168 146.35009766 C-16.09907122 140.86953437 -16.06381679 134.77437263 -14.2722168 129.28759766 C-10.10735576 125.25288853 -4.82698274 125.35009766 0.7277832 125.35009766 C0.7277832 91.03009766 0.7277832 56.71009766 0.7277832 21.35009766 C-2.5722168 21.02009766 -5.8722168 20.69009766 -9.2722168 20.35009766 C-12.3347168 18.97509766 -12.3347168 18.97509766 -14.2722168 17.35009766 C-15.40352563 13.95617114 -15.4051362 11.29674893 -15.3972168 7.72509766 C-15.40108398 5.97326172 -15.40108398 5.97326172 -15.4050293 4.18603516 C-15.10375492 -2.24705882 -5.12321703 0.03870526 0 0 Z " fill="#FEFEFE" transform="translate(35.272216796875,41.64990234375)"/>
<path d="M0 0 C9.57 0 19.14 0 29 0 C33.50326409 10.13234421 33.50326409 10.13234421 35.55859375 15.28125 C36.01975586 16.43471924 36.48091797 17.58818848 36.95605469 18.77661133 C37.44998217 20.01769617 37.9437937 21.25882716 38.4375 22.5 C38.96641816 23.82643723 39.49539084 25.15285272 40.02441406 26.47924805 C49.66948654 50.6817062 59.1647209 74.94288579 68.62011719 99.2199707 C68.94630035 100.05705063 69.27248352 100.89413055 69.60855103 101.75657654 C70.23715581 103.36984594 70.86540262 104.98325488 71.49325562 106.59681702 C73.40948594 111.51376887 75.36376137 116.41301647 77.38647461 121.28735352 C78 123 78 123 78 125 C78.59167969 125.18175781 79.18335938 125.36351562 79.79296875 125.55078125 C84.18489998 126.94788825 88.21742209 128.28127213 92 131 C93.37252731 133.74505463 93.13229255 136.00327412 93.125 139.0625 C93.12757813 140.14660156 93.13015625 141.23070312 93.1328125 142.34765625 C93 145 93 145 92 146 C90.4651703 146.09319449 88.92607918 146.117458 87.38842773 146.11352539 C86.40748642 146.11344986 85.4265451 146.11337433 84.4158783 146.11329651 C83.3492244 146.10813522 82.2825705 146.10297394 81.18359375 146.09765625 C79.55430687 146.09553383 79.55430687 146.09553383 77.8921051 146.09336853 C74.40720925 146.08775048 70.92237658 146.07519492 67.4375 146.0625 C65.08138113 146.05748733 62.72526126 146.05292402 60.36914062 146.04882812 C54.57940536 146.03777519 48.78970719 146.02101951 43 146 C41.9264574 133.40717489 41.9264574 133.40717489 44.55859375 129.95703125 C46.5 128.625 46.5 128.625 50 127 C49.78794922 126.4652002 49.57589844 125.93040039 49.35742188 125.37939453 C48.40143386 122.96263583 47.45065947 120.54385942 46.5 118.125 C46.16613281 117.28324219 45.83226562 116.44148438 45.48828125 115.57421875 C45.17246094 114.76855469 44.85664062 113.96289062 44.53125 113.1328125 C44.09135742 112.01737061 44.09135742 112.01737061 43.64257812 110.87939453 C43 109 43 109 43 107 C24.19 107 5.38 107 -14 107 C-14.33 108.98 -14.66 110.96 -15 113 C-15.80786932 115.47393424 -16.66386986 117.93256938 -17.5625 120.375 C-17.79646484 121.01566406 -18.03042969 121.65632813 -18.27148438 122.31640625 C-18.84299619 123.8793161 -19.42084229 125.43990727 -20 127 C-17.03 128.98 -17.03 128.98 -14 131 C-14 135.95 -14 140.9 -14 146 C-30.17 146 -46.34 146 -63 146 C-63 141.38 -63 136.76 -63 132 C-58.85996125 128.22312254 -56.60495825 127.2894187 -51.1875 126.3125 C-47.95296521 125.41474679 -47.95296521 125.41474679 -47.29614258 123.36547852 C-47.12236084 122.62740967 -46.9485791 121.88934082 -46.76953125 121.12890625 C-45.35887697 115.95497408 -43.54721615 111.02608214 -41.59375 106.0390625 C-41.27125778 105.21451569 -40.94876556 104.38996887 -40.61650085 103.54043579 C-39.58072777 100.90074313 -38.54041528 98.262866 -37.5 95.625 C-36.77258706 93.77203341 -36.04553987 91.91892319 -35.31884766 90.06567383 C-33.53477825 85.51837794 -31.74641544 80.97278763 -29.95617676 76.42791748 C-28.18702881 71.93570912 -26.42211231 67.44183885 -24.65649414 62.94824219 C-23.80464232 60.78071828 -22.95226902 58.61339924 -22.09936523 56.44628906 C-17.62180054 45.06170834 -13.19392602 33.65782695 -8.76904297 22.25268555 C-8.48209061 21.51359451 -8.19513824 20.77450348 -7.89949036 20.01301575 C-7.36819521 18.6445247 -6.83729989 17.27587831 -6.30693054 15.9070282 C-4.2417949 10.58882524 -2.11919672 5.29799179 0 0 Z M14 29 C13.764021 29.72364746 13.52804199 30.44729492 13.28491211 31.19287109 C4.85691563 56.96085257 4.85691563 56.96085257 0.38452148 67.82568359 C-2.19027243 74.15978959 -3.95453929 80.35225271 -6 87 C7.86 87 21.72 87 36 87 C27.50992533 62.53117904 27.50992533 62.53117904 18.3046875 38.328125 C17.09630205 35.24565672 16.01482855 32.15080103 15 29 C14.67 29 14.34 29 14 29 Z " fill="#FDFDFD" transform="translate(764,42)"/>
<path d="M0 0 C13.53 0 27.06 0 41 0 C41.05607422 7.67443359 41.05607422 7.67443359 41.11328125 15.50390625 C41.14357229 18.75328832 41.17472749 22.00261635 41.20898438 25.25195312 C41.26322618 30.40467549 41.31433932 35.55729098 41.34643555 40.71020508 C41.37252536 44.86658319 41.41296742 49.02260067 41.46318626 53.17875481 C41.47981672 54.76105181 41.49135474 56.34341114 41.49761391 57.92578316 C41.50729703 60.14955194 41.53540426 62.37240604 41.56762695 64.59594727 C41.58428154 66.49123924 41.58428154 66.49123924 41.60127258 68.42481995 C42.17046754 73.52849317 43.64358678 77.43806963 47.0625 81.375 C52.85189662 84.57764494 58.79747192 84.57544255 65.125 82.9375 C70.07554793 81.49002145 74.63983643 78.93475394 78 75 C79.16825788 70.87240958 79.07203441 66.86881679 79 62.6015625 C79.01087646 61.41146576 79.02175293 60.22136902 79.03295898 58.99520874 C79.05909797 55.20421618 79.03028122 51.41592054 79 47.625 C79.00809202 45.05076729 79.01976933 42.47654319 79.03515625 39.90234375 C79.06499727 33.60107067 79.04975601 27.30112027 79 21 C78.38511719 20.94448975 77.77023437 20.88897949 77.13671875 20.83178711 C75.92435547 20.71202515 75.92435547 20.71202515 74.6875 20.58984375 C73.88699219 20.5137085 73.08648437 20.43757324 72.26171875 20.35913086 C69.31467258 19.89117912 67.33965713 18.82785713 65 17 C63.46733418 13.93466836 63.89723529 10.73245728 63.9375 7.375 C63.94201172 6.66859375 63.94652344 5.9621875 63.95117188 5.234375 C63.96296125 3.48954725 63.98089676 1.744763 64 0 C69.82071622 -0.02464638 75.64140234 -0.0428343 81.4621582 -0.05493164 C83.44393441 -0.05997267 85.42570689 -0.06680538 87.4074707 -0.07543945 C90.24952109 -0.08751515 93.09152247 -0.09323045 95.93359375 -0.09765625 C96.82525742 -0.10281754 97.71692108 -0.10797882 98.63560486 -0.11329651 C100.75740601 -0.11349177 102.8791078 -0.0621003 105 0 C106.73141493 1.73141493 106.11977579 3.95750044 106.12442017 6.26478577 C106.11902725 7.39550758 106.11902725 7.39550758 106.11352539 8.54907227 C106.11367142 9.33925751 106.11381744 10.12944275 106.1139679 10.943573 C106.11326857 13.56787822 106.10547527 16.19211336 106.09765625 18.81640625 C106.09579214 20.63101665 106.0943682 22.44562756 106.09336853 24.26023865 C106.08954279 29.0459023 106.07971204 33.8315358 106.06866455 38.6171875 C106.05845163 43.49674064 106.05387117 48.37629864 106.04882812 53.25585938 C106.03808982 62.83725286 106.02101273 72.41862393 106 82 C107.39025391 82.41572266 107.39025391 82.41572266 108.80859375 82.83984375 C110.00613281 83.20207031 111.20367187 83.56429687 112.4375 83.9375 C113.63246094 84.29714844 114.82742188 84.65679687 116.05859375 85.02734375 C119 86 119 86 120 87 C120.07325168 89.86267567 120.09238205 92.700719 120.0625 95.5625 C120.05798828 96.36880859 120.05347656 97.17511719 120.04882812 98.00585938 C120.03700518 100.00393756 120.01906914 102.00197783 120 104 C115.37359847 104.09901748 110.74781613 104.17153649 106.12060547 104.21972656 C104.54725396 104.2398188 102.97397692 104.26709799 101.40087891 104.30175781 C99.13685728 104.35038494 96.87382427 104.37299135 94.609375 104.390625 C93.90818542 104.41127014 93.20699585 104.43191528 92.48455811 104.45318604 C89.13335329 104.45471921 87.32012439 104.23901751 84.60253906 102.20996094 C82.50150964 99.31256327 81.79875398 96.46126726 81 93 C80.53851563 93.37511719 80.07703125 93.75023437 79.6015625 94.13671875 C67.69640246 103.4773285 56.92921473 106.24875207 42 105 C32.61322514 103.14499449 25.64329107 98.09954898 20.1875 90.3125 C15.16258272 81.28201539 14.56428153 71.35136097 14.70703125 61.234375 C14.71127609 60.07496399 14.71552094 58.91555298 14.71989441 57.7210083 C14.73651772 54.06375649 14.774139 50.40708169 14.8125 46.75 C14.82756797 44.25131011 14.84125264 41.75261148 14.85351562 39.25390625 C14.88636745 33.16907817 14.93640063 27.08458033 15 21 C14.33613281 20.96261719 13.67226563 20.92523438 12.98828125 20.88671875 C12.10527344 20.82097656 11.22226562 20.75523438 10.3125 20.6875 C9.44238281 20.62949219 8.57226562 20.57148437 7.67578125 20.51171875 C5 20 5 20 0 17 C0 11.39 0 5.78 0 0 Z " fill="#FDFDFD" transform="translate(278,84)"/>
<path d="M0 0 C8.35615143 6.8706134 13.97226531 14.55589515 15.8125 25.3125 C15.89595812 27.15254979 15.93033906 28.99522176 15.92602539 30.8371582 C15.92591209 32.45827263 15.92591209 32.45827263 15.92579651 34.11213684 C15.92063522 35.2675145 15.91547394 36.42289215 15.91015625 37.61328125 C15.9087413 38.80479294 15.90732635 39.99630463 15.90586853 41.22392273 C15.90027728 45.02430751 15.88772632 48.82463307 15.875 52.625 C15.86998387 55.20377519 15.86542116 57.7825513 15.86132812 60.36132812 C15.85031071 66.67840557 15.83358122 72.99544855 15.8125 79.3125 C16.49957031 79.41046875 17.18664062 79.5084375 17.89453125 79.609375 C18.79558594 79.75890625 19.69664062 79.9084375 20.625 80.0625 C21.96498047 80.27132812 21.96498047 80.27132812 23.33203125 80.484375 C26.37713877 81.50100932 27.2591912 82.5396853 28.8125 85.3125 C29.140625 88.73046875 29.140625 88.73046875 29.0625 92.5 C29.04703125 93.75167969 29.0315625 95.00335938 29.015625 96.29296875 C28.8125 99.3125 28.8125 99.3125 27.8125 100.3125 C23.77815812 100.59546128 19.73056869 100.54441021 15.6875 100.5625 C13.99367188 100.5934375 13.99367188 100.5934375 12.265625 100.625 C1.08535688 100.6773666 1.08535688 100.6773666 -4.1875 97.3125 C-5.30859375 95.05078125 -5.30859375 95.05078125 -5.625 92.625 C-5.74746094 91.81675781 -5.86992188 91.00851563 -5.99609375 90.17578125 C-6.05925781 89.56089844 -6.12242187 88.94601563 -6.1875 88.3125 C-6.64898438 88.68761719 -7.11046875 89.06273437 -7.5859375 89.44921875 C-19.86692984 99.08470088 -31.67658503 102.26371338 -47.1875 101.3125 C-54.80110065 100.21486426 -60.08690658 97.04919514 -65.1875 91.3125 C-70.78870011 83.53576129 -70.9003937 75.64302045 -70.1875 66.3125 C-68.32289308 58.52650626 -61.77248287 53.40562294 -55.38671875 49.09765625 C-50.92282024 46.63310918 -46.02449397 45.1825065 -41.1875 43.625 C-40.52290771 43.41012939 -39.85831543 43.19525879 -39.17358398 42.97387695 C-31.69286644 40.67402759 -24.48008856 40.15620032 -16.6875 40.25 C-15.59695313 40.25676758 -15.59695313 40.25676758 -14.484375 40.26367188 C-12.71871319 40.27528807 -10.9530947 40.29321559 -9.1875 40.3125 C-9.44457735 37.93529061 -9.71767068 35.56173394 -10 33.1875 C-10.07025391 32.52234375 -10.14050781 31.8571875 -10.21289062 31.171875 C-10.89232544 25.6276869 -12.06714567 20.98646395 -16.5625 17.4375 C-24.32637705 15.02802092 -31.34748916 15.05182947 -38.69165039 18.77441406 C-39.89222056 19.42210927 -41.09065706 20.07377594 -42.28686523 20.72949219 C-46.82462579 23.21337298 -50.00936589 24.50079579 -55.1875 24.3125 C-59.81266876 22.69906904 -61.81556193 19.31260737 -64.3671875 15.34765625 C-65.1875 13.3125 -65.1875 13.3125 -65.0625 11.2734375 C-62.15596269 4.75967979 -53.27225843 0.98428081 -47.046875 -1.62109375 C-31.06052564 -7.58321585 -15.22385704 -8.05968902 0 0 Z M-44.125 65.1875 C-46.27784512 69.49319023 -46.45108311 72.34053728 -45.1875 77 C-43.19661497 80.29740333 -41.92349215 81.64546482 -38.265625 82.875 C-30.14102911 84.58544124 -23.47198915 83.1189192 -16.1875 79.3125 C-15.46691406 78.98121094 -14.74632812 78.64992188 -14.00390625 78.30859375 C-11.54872124 76.8117707 -10.52645899 75.89075436 -9.1875 73.3125 C-8.35090064 67.68356404 -8.79103751 61.96366377 -9.1875 56.3125 C-20.71256037 55.72996774 -35.40707194 56.75079542 -44.125 65.1875 Z " fill="#FDFDFD" transform="translate(558.1875,87.6875)"/>
<path d="M0 0 C1.34045701 1.02700414 2.65518824 2.08875569 3.9375 3.1875 C4.55882812 3.68894531 5.18015625 4.19039062 5.8203125 4.70703125 C15.33788075 13.17395885 19.0412546 25.92754318 19.90625 38.23828125 C19.94961903 42.33123307 19.36012807 45.34640421 17.9375 49.1875 C14.39162059 51.5514196 12.92246318 51.43105585 8.72192383 51.41455078 C7.4408223 51.41439972 6.15972076 51.41424866 4.83979797 51.41409302 C3.44137416 51.40387973 2.04295192 51.39344774 0.64453125 51.3828125 C-0.78607485 51.37908178 -2.21668352 51.37623509 -3.64729309 51.37423706 C-7.41042144 51.36660522 -11.17339511 51.34696069 -14.9364624 51.3248291 C-18.77728178 51.30436094 -22.61812617 51.29523327 -26.45898438 51.28515625 C-33.99356006 51.26371429 -41.52800834 51.22958387 -49.0625 51.1875 C-48.59124391 53.28316157 -48.11664726 55.37807215 -47.640625 57.47265625 C-47.37668945 58.63933838 -47.11275391 59.80602051 -46.84082031 61.00805664 C-45.1067275 68.09183668 -41.99224538 72.13471031 -36.0625 76.1875 C-29.85288779 79.76070358 -23.06258206 80.11012267 -16.0625 79.1875 C-10.4047676 77.51516913 -5.12100533 75.25731435 0.109375 72.5390625 C2.9375 71.1875 2.9375 71.1875 6.3125 70.875 C11.94497737 72.91434526 14.58473735 77.38913059 17.9375 82.1875 C14.42757 90.03421852 6.63454344 94.12172846 -1.0625 97.1875 C-16.79538895 102.6201274 -34.8232898 102.1057447 -49.79296875 94.8671875 C-61.37041696 88.45667911 -69.69215613 78.31827313 -73.47265625 65.58984375 C-77.75101623 48.16473523 -77.22867925 30.35914882 -67.81640625 14.6484375 C-53.03440495 -6.0924552 -22.24121626 -14.22980045 0 0 Z M-42.37109375 19.1875 C-46.08656402 23.58085053 -48.3458636 28.4544088 -49.0625 34.1875 C-44.42158635 35.09681025 -39.92826079 35.33400014 -35.21484375 35.3203125 C-34.11336754 35.32174759 -34.11336754 35.32174759 -32.98963928 35.32321167 C-31.44581008 35.32388875 -29.90197795 35.32206758 -28.3581543 35.31787109 C-26.0036782 35.31250838 -23.64939217 35.31783608 -21.29492188 35.32421875 C-19.78906208 35.32355803 -18.28320241 35.32227701 -16.77734375 35.3203125 C-15.72872414 35.32334885 -15.72872414 35.32334885 -14.65892029 35.32644653 C-11.00141817 35.30900372 -7.61958326 35.05428351 -4.0625 34.1875 C-5.10569583 27.24201195 -6.09763464 21.42987878 -11.8203125 16.75 C-21.7341865 9.90748305 -33.72787324 10.80619526 -42.37109375 19.1875 Z " fill="#FDFDFD" transform="translate(254.0625,88.8125)"/>
<path d="M0 0 C19.47 0 38.94 0 59 0 C59 5.28 59 10.56 59 16 C54 20 54 20 44 21 C44 55.32 44 89.64 44 125 C47.96 125.66 51.92 126.32 56 127 C59.37966117 131.5062149 59.36243109 132.76269977 59.25 138.1875 C59.23453125 139.43917969 59.2190625 140.69085938 59.203125 141.98046875 C59 145 59 145 58 146 C56.18944975 146.09376053 54.37522799 146.1174411 52.56225586 146.11352539 C50.82056374 146.11341209 50.82056374 146.11341209 49.04368591 146.11329651 C47.14840904 146.10555458 47.14840904 146.10555458 45.21484375 146.09765625 C43.92888809 146.0962413 42.64293243 146.09482635 41.31800842 146.09336853 C37.89356557 146.08954418 34.46916491 146.07971462 31.04473877 146.06866455 C27.55261811 146.05844864 24.06049066 146.05387053 20.56835938 146.04882812 C13.71222222 146.03809227 6.85611313 146.02101684 0 146 C-0.08117951 143.58265458 -0.14056926 141.16805051 -0.1875 138.75 C-0.21263672 138.06808594 -0.23777344 137.38617188 -0.26367188 136.68359375 C-0.31003748 133.49982212 -0.20539375 131.35872801 1.39282227 128.56738281 C3.24255168 126.76345408 4.42476726 126.27087358 6.9375 125.75 C7.60652344 125.60046875 8.27554688 125.4509375 8.96484375 125.296875 C11 125 11 125 15 125 C15 90.68 15 56.36 15 21 C12.03 20.67 9.06 20.34 6 20 C1.39726027 17.79452055 1.39726027 17.79452055 0 15 C0 10.05 0 5.1 0 0 Z " fill="#FDFEFD" transform="translate(863,42)"/>
<path d="M0 0 C13.53 0 27.06 0 41 0 C41 42.57 41 85.14 41 129 C44.96 129.66 48.92 130.32 53 131 C53.99 131.99 54.98 132.98 56 134 C56 139.28 56 144.56 56 150 C37.52 150 19.04 150 0 150 C0 144.72 0 139.44 0 134 C3.40693774 130.59306226 5.37242161 130.03721585 10 129 C11.65 129 13.3 129 15 129 C15 93.36 15 57.72 15 21 C11.7 20.67 8.4 20.34 5 20 C3.35 18.68 1.7 17.36 0 16 C0 10.72 0 5.44 0 0 Z " fill="#FEFEFE" transform="translate(593,38)"/>
<path d="M0 0 C0.31660948 5.27682469 -0.20813683 10.16335673 -1.125 15.375 C-1.33382812 16.57898438 -1.54265625 17.78296875 -1.7578125 19.0234375 C-3 22 -3 22 -5.6171875 23.41796875 C-10.15515714 24.19875106 -14.50894104 24.0615847 -19.078125 23.83398438 C-24.75276984 23.67695699 -28.62560098 24.81332056 -32.828125 28.68359375 C-33.29734375 29.26238281 -33.7665625 29.84117188 -34.25 30.4375 C-34.96929687 31.30181641 -34.96929687 31.30181641 -35.703125 32.18359375 C-38.14647057 35.60574945 -39.2460161 38.26893396 -39.31884766 42.49316406 C-39.33871735 43.37377502 -39.35858704 44.25438599 -39.37905884 45.16168213 C-39.39638565 46.57438385 -39.39638565 46.57438385 -39.4140625 48.015625 C-39.43342865 48.98659119 -39.4527948 49.95755737 -39.4727478 50.95794678 C-39.53246509 54.05520886 -39.5788978 57.15250826 -39.625 60.25 C-39.66318698 62.35157859 -39.70223914 64.45314165 -39.7421875 66.5546875 C-39.83816031 71.70299868 -39.9222206 76.85138312 -40 82 C-39.16855469 82.09796875 -38.33710938 82.1959375 -37.48046875 82.296875 C-36.39378906 82.44640625 -35.30710937 82.5959375 -34.1875 82.75 C-32.56908203 82.95882812 -32.56908203 82.95882812 -30.91796875 83.171875 C-28 84 -28 84 -25 88 C-25 92.95 -25 97.9 -25 103 C-43.48 103 -61.96 103 -81 103 C-81 97.72 -81 92.44 -81 87 C-77.59306226 83.59306226 -75.62757839 83.03721585 -71 82 C-69.35 82 -67.7 82 -66 82 C-66 61.54 -66 41.08 -66 20 C-69.3 19.67 -72.6 19.34 -76 19 C-79.10546875 17.453125 -79.10546875 17.453125 -81 15 C-81.37233017 12.03327323 -81.4808246 9.68143759 -81.3125 6.75 C-81.28994141 6.00492188 -81.26738281 5.25984375 -81.24414062 4.4921875 C-81.18543561 2.660591 -81.09575757 0.83003347 -81 -1 C-76.21284377 -1.07415168 -71.42602173 -1.12860204 -66.63842773 -1.16479492 C-65.00978777 -1.17988243 -63.38118844 -1.20035506 -61.75268555 -1.22631836 C-59.41184465 -1.26270449 -57.07154081 -1.2797262 -54.73046875 -1.29296875 C-54.00224411 -1.30845261 -53.27401947 -1.32393646 -52.52372742 -1.33988953 C-47.4918737 -1.34156509 -47.4918737 -1.34156509 -45.07617188 0.3359375 C-43.4717612 2.81680483 -42.96042261 5.31812846 -42.3125 8.1875 C-42.06113281 9.27417969 -41.80976563 10.36085938 -41.55078125 11.48046875 C-41.36902344 12.31191406 -41.18726563 13.14335938 -41 14 C-40.443125 13.33613281 -39.88625 12.67226562 -39.3125 11.98828125 C-28.41310991 -0.62334411 -16.16911519 -7.0556139 0 0 Z " fill="#FDFDFD" transform="translate(486,85)"/>
</svg>
