<?xml version="1.0" encoding="UTF-8"?>
<svg xmlns="http://www.w3.org/2000/svg" xmlns:xlink="http://www.w3.org/1999/xlink" width="1350px" height="405px" viewBox="0 0 1350 405" version="1.1">
<g id="surface1">
<path style=" stroke:none;fill-rule:nonzero;fill:rgb(99.607843%,99.607843%,99.607843%);fill-opacity:1;" d="M 50.390625 63.894531 C 52.675781 63.871094 54.964844 63.828125 57.25 63.769531 C 60.554688 63.683594 63.855469 63.648438 67.160156 63.632812 C 68.171875 63.59375 69.1875 63.558594 70.234375 63.527344 C 78.441406 63.558594 81.578125 66.109375 87.140625 72.101562 C 89.394531 74.835938 89.394531 74.835938 91.078125 77.355469 C 91.730469 78.316406 92.375 79.269531 93.046875 80.257812 C 94.058594 81.773438 94.058594 81.773438 95.089844 83.320312 C 101.082031 92.109375 107.226562 100.695312 113.660156 109.113281 C 126.433594 125.847656 138.773438 142.933594 151.136719 160.019531 C 161.78125 174.726562 172.464844 189.398438 183.347656 203.90625 C 185.617188 206.972656 187.8125 210.101562 190 213.238281 C 190.472656 174.761719 190.941406 136.289062 191.429688 96.648438 C 185.300781 96.140625 179.171875 95.636719 172.859375 95.113281 C 167.144531 92.046875 167.144531 92.046875 165.714844 88.976562 C 165.714844 80.875 165.714844 72.777344 165.714844 64.433594 C 193.054688 64.433594 220.402344 64.433594 248.570312 64.433594 C 248.570312 72.535156 248.570312 80.632812 248.570312 88.976562 C 241.425781 95.113281 241.425781 95.113281 227.140625 96.648438 C 227.140625 159.929688 227.140625 223.210938 227.140625 288.410156 C 201.429688 288.410156 201.429688 288.410156 194.289062 283.808594 C 191.703125 280.882812 189.320312 278 186.960938 274.890625 C 186.285156 274.011719 185.609375 273.136719 184.914062 272.234375 C 178.066406 263.316406 171.425781 254.222656 164.824219 245.09375 C 161.5625 240.597656 158.28125 236.125 155 231.648438 C 153.691406 229.859375 152.382812 228.066406 151.070312 226.277344 C 150.101562 224.949219 150.101562 224.949219 149.109375 223.59375 C 143.210938 215.539062 143.210938 215.539062 141.25 212.855469 C 139.9375 211.0625 138.628906 209.273438 137.320312 207.480469 C 134.058594 203.027344 130.800781 198.574219 127.550781 194.117188 C 126.253906 192.339844 124.957031 190.5625 123.664062 188.789062 C 123.019531 187.910156 122.378906 187.03125 121.714844 186.128906 C 118.273438 181.421875 114.8125 176.742188 111.316406 172.082031 C 110.574219 171.09375 109.835938 170.101562 109.070312 169.085938 C 107.675781 167.226562 106.273438 165.371094 104.875 163.515625 C 98.652344 155.230469 93 146.714844 87.140625 138.066406 C 87.140625 177.046875 87.140625 216.027344 87.140625 256.191406 C 92.796875 256.703125 98.453125 257.203125 104.285156 257.726562 C 111.429688 262.328125 111.429688 262.328125 112.855469 265.398438 C 112.957031 269.042969 112.976562 272.683594 112.949219 276.328125 C 112.933594 278.292969 112.917969 280.257812 112.910156 282.289062 C 112.890625 283.796875 112.875 285.3125 112.855469 286.875 C 108.460938 288.449219 105.476562 288.597656 100.871094 288.582031 C 99.296875 288.582031 97.726562 288.582031 96.105469 288.582031 C 94.410156 288.578125 92.710938 288.566406 90.96875 288.558594 C 88.359375 288.558594 88.359375 288.558594 85.699219 288.554688 C 80.136719 288.542969 74.574219 288.523438 69.019531 288.503906 C 65.25 288.496094 61.488281 288.492188 57.71875 288.484375 C 48.480469 288.464844 39.238281 288.441406 30 288.410156 C 27.386719 280 27.441406 270.652344 30 262.234375 C 35.949219 256.042969 43.492188 256.191406 51.429688 256.191406 C 51.429688 203.546875 51.429688 150.890625 51.429688 96.648438 C 46.714844 96.140625 42 95.636719 37.144531 95.113281 C 32.765625 93.003906 32.765625 93.003906 30 90.511719 C 28.386719 85.304688 28.378906 81.226562 28.394531 75.746094 C 28.386719 73.054688 28.386719 73.054688 28.378906 70.320312 C 28.8125 60.449219 43.070312 63.953125 50.390625 63.894531 Z M 50.390625 63.894531 "/>
<path style=" stroke:none;fill-rule:nonzero;fill:rgb(99.215686%,99.215686%,99.215686%);fill-opacity:1;" d="M 1091.429688 64.433594 C 1105.101562 64.433594 1118.769531 64.433594 1132.859375 64.433594 C 1139.292969 79.972656 1139.292969 79.972656 1142.226562 87.875 C 1142.882812 89.644531 1143.546875 91.414062 1144.222656 93.238281 C 1144.929688 95.140625 1145.636719 97.046875 1146.339844 98.949219 C 1147.09375 100.980469 1147.851562 103.019531 1148.609375 105.050781 C 1162.386719 142.179688 1175.949219 179.402344 1189.457031 216.640625 C 1189.921875 217.925781 1190.386719 219.210938 1190.871094 220.535156 C 1191.769531 223.007812 1192.664062 225.488281 1193.5625 227.960938 C 1196.296875 235.503906 1199.09375 243.019531 1201.980469 250.496094 C 1202.855469 253.125 1202.855469 253.125 1202.855469 256.191406 C 1203.699219 256.472656 1204.550781 256.75 1205.417969 257.035156 C 1211.691406 259.179688 1217.453125 261.226562 1222.859375 265.398438 C 1224.816406 269.605469 1224.472656 273.074219 1224.464844 277.765625 C 1224.46875 279.429688 1224.472656 281.09375 1224.476562 282.804688 C 1224.285156 286.875 1224.285156 286.875 1222.859375 288.410156 C 1220.667969 288.554688 1218.464844 288.589844 1216.269531 288.582031 C 1214.867188 288.582031 1213.464844 288.582031 1212.023438 288.582031 C 1210.5 288.578125 1208.972656 288.566406 1207.40625 288.558594 C 1205.078125 288.558594 1205.078125 288.558594 1202.703125 288.554688 C 1197.722656 288.542969 1192.746094 288.523438 1187.769531 288.503906 C 1184.398438 288.496094 1181.035156 288.492188 1177.667969 288.484375 C 1169.398438 288.464844 1161.128906 288.441406 1152.855469 288.410156 C 1151.324219 269.089844 1151.324219 269.089844 1155.085938 263.796875 C 1157.855469 261.753906 1157.855469 261.753906 1162.855469 259.261719 C 1162.554688 258.441406 1162.25 257.621094 1161.941406 256.773438 C 1160.574219 253.066406 1159.214844 249.355469 1157.855469 245.644531 C 1157.378906 244.355469 1156.902344 243.0625 1156.414062 241.734375 C 1155.960938 240.496094 1155.511719 239.261719 1155.046875 237.984375 C 1154.417969 236.277344 1154.417969 236.277344 1153.773438 234.527344 C 1152.855469 231.648438 1152.855469 231.648438 1152.855469 228.578125 C 1125.984375 228.578125 1099.113281 228.578125 1071.429688 228.578125 C 1070.957031 231.617188 1070.484375 234.652344 1070 237.785156 C 1068.84375 241.582031 1067.621094 245.347656 1066.335938 249.097656 C 1066.007812 250.082031 1065.671875 251.0625 1065.324219 252.074219 C 1064.511719 254.472656 1063.6875 256.867188 1062.855469 259.261719 C 1067.097656 262.300781 1067.097656 262.300781 1071.429688 265.398438 C 1071.429688 272.992188 1071.429688 280.585938 1071.429688 288.410156 C 1048.332031 288.410156 1025.226562 288.410156 1001.429688 288.410156 C 1001.429688 281.324219 1001.429688 274.234375 1001.429688 266.933594 C 1007.339844 261.136719 1010.5625 259.707031 1018.304688 258.207031 C 1022.921875 256.832031 1022.921875 256.832031 1023.863281 253.6875 C 1024.109375 252.554688 1024.359375 251.421875 1024.613281 250.253906 C 1026.628906 242.320312 1029.21875 234.753906 1032.007812 227.101562 C 1032.472656 225.84375 1032.933594 224.578125 1033.40625 223.273438 C 1034.882812 219.222656 1036.371094 215.175781 1037.855469 211.128906 C 1038.894531 208.285156 1039.9375 205.445312 1040.972656 202.601562 C 1043.523438 195.625 1046.078125 188.648438 1048.632812 181.679688 C 1051.160156 174.785156 1053.679688 167.890625 1056.207031 161 C 1057.421875 157.675781 1058.636719 154.347656 1059.859375 151.027344 C 1066.253906 133.5625 1072.578125 116.070312 1078.902344 98.570312 C 1079.308594 97.433594 1079.722656 96.300781 1080.144531 95.132812 C 1080.902344 93.03125 1081.660156 90.933594 1082.421875 88.832031 C 1085.371094 80.675781 1088.398438 72.558594 1091.429688 64.433594 Z M 1111.429688 108.921875 C 1111.089844 110.03125 1110.753906 111.140625 1110.410156 112.285156 C 1098.367188 151.8125 1098.367188 151.8125 1091.976562 168.480469 C 1088.296875 178.199219 1085.78125 187.699219 1082.855469 197.898438 C 1102.65625 197.898438 1122.457031 197.898438 1142.859375 197.898438 C 1130.730469 160.359375 1130.730469 160.359375 1117.582031 123.230469 C 1115.851562 118.503906 1114.304688 113.753906 1112.859375 108.921875 C 1112.382812 108.921875 1111.914062 108.921875 1111.429688 108.921875 Z M 1111.429688 108.921875 "/>
<path style=" stroke:none;fill-rule:nonzero;fill:rgb(99.215686%,99.215686%,99.215686%);fill-opacity:1;" d="M 397.140625 128.863281 C 416.472656 128.863281 435.800781 128.863281 455.714844 128.863281 C 455.792969 140.636719 455.792969 140.636719 455.875 152.648438 C 455.917969 157.632812 455.964844 162.617188 456.011719 167.605469 C 456.089844 175.503906 456.160156 183.410156 456.210938 191.316406 C 456.25 197.691406 456.304688 204.066406 456.378906 210.445312 C 456.402344 212.875 456.414062 215.300781 456.425781 217.726562 C 456.441406 221.140625 456.476562 224.546875 456.527344 227.960938 C 456.550781 230.867188 456.550781 230.867188 456.574219 233.832031 C 457.382812 241.664062 459.488281 247.660156 464.375 253.699219 C 472.644531 258.613281 481.140625 258.609375 490.179688 256.097656 C 497.25 253.878906 503.773438 249.957031 508.570312 243.921875 C 510.238281 237.585938 510.105469 231.445312 510 224.898438 C 510.011719 223.074219 510.03125 221.25 510.046875 219.367188 C 510.085938 213.550781 510.042969 207.738281 510 201.925781 C 510.011719 197.972656 510.027344 194.023438 510.050781 190.078125 C 510.09375 180.410156 510.070312 170.746094 510 161.078125 C 509.121094 160.992188 508.246094 160.90625 507.339844 160.820312 C 505.609375 160.636719 505.609375 160.636719 503.839844 160.453125 C 502.699219 160.332031 501.550781 160.214844 500.371094 160.097656 C 496.164062 159.378906 493.34375 157.746094 490 154.941406 C 487.8125 150.242188 488.425781 145.328125 488.484375 140.175781 C 488.488281 139.09375 488.492188 138.011719 488.503906 136.894531 C 488.515625 134.21875 488.546875 131.539062 488.570312 128.863281 C 496.886719 128.824219 505.199219 128.796875 513.519531 128.777344 C 516.347656 128.773438 519.179688 128.761719 522.011719 128.75 C 526.070312 128.730469 530.128906 128.71875 534.191406 128.714844 C 535.464844 128.707031 536.738281 128.695312 538.046875 128.691406 C 541.082031 128.691406 544.113281 128.769531 547.144531 128.863281 C 549.617188 131.519531 548.746094 134.933594 548.75 138.476562 C 548.738281 140.210938 548.738281 140.210938 548.734375 141.980469 C 548.734375 143.191406 548.734375 144.402344 548.734375 145.652344 C 548.734375 149.679688 548.71875 153.703125 548.710938 157.726562 C 548.707031 160.515625 548.707031 163.300781 548.707031 166.078125 C 548.703125 173.425781 548.6875 180.765625 548.667969 188.109375 C 548.652344 195.59375 548.648438 203.074219 548.640625 210.5625 C 548.625 225.261719 548.601562 239.960938 548.570312 254.660156 C 550.554688 255.296875 550.554688 255.296875 552.585938 255.949219 C 554.296875 256.503906 556.007812 257.0625 557.765625 257.632812 C 559.472656 258.183594 561.179688 258.734375 562.9375 259.304688 C 567.144531 260.796875 567.144531 260.796875 568.574219 262.328125 C 568.679688 266.722656 568.703125 271.074219 568.660156 275.464844 C 568.652344 276.703125 568.648438 277.9375 568.640625 279.214844 C 568.625 282.277344 568.597656 285.34375 568.574219 288.410156 C 561.960938 288.5625 555.355469 288.671875 548.746094 288.746094 C 546.496094 288.777344 544.246094 288.816406 542 288.875 C 538.769531 288.945312 535.53125 288.980469 532.300781 289.007812 C 531.296875 289.042969 530.296875 289.070312 529.261719 289.105469 C 524.476562 289.109375 521.886719 288.773438 518.003906 285.664062 C 515.003906 281.21875 513.996094 276.847656 512.855469 271.535156 C 512.199219 272.109375 511.539062 272.683594 510.855469 273.277344 C 493.851562 287.609375 478.46875 291.859375 457.144531 289.941406 C 443.730469 287.09375 433.773438 279.359375 425.984375 267.410156 C 418.800781 253.554688 417.949219 238.320312 418.15625 222.804688 C 418.160156 221.023438 418.164062 219.246094 418.167969 217.414062 C 418.191406 211.800781 418.25 206.191406 418.304688 200.582031 C 418.328125 196.746094 418.347656 192.917969 418.359375 189.082031 C 418.410156 179.746094 418.480469 170.414062 418.570312 161.078125 C 417.621094 161.023438 416.671875 160.964844 415.695312 160.90625 C 414.433594 160.804688 413.171875 160.707031 411.875 160.601562 C 410.632812 160.507812 409.390625 160.421875 408.105469 160.332031 C 404.285156 159.546875 404.285156 159.546875 397.140625 154.941406 C 397.140625 146.335938 397.140625 137.734375 397.140625 128.863281 Z M 397.140625 128.863281 "/>
<path style=" stroke:none;fill-rule:nonzero;fill:rgb(99.215686%,99.215686%,99.215686%);fill-opacity:1;" d="M 797.410156 134.519531 C 809.347656 145.0625 817.375 156.851562 820 173.351562 C 820.121094 176.175781 820.167969 179 820.164062 181.828125 C 820.164062 184.316406 820.164062 184.316406 820.164062 186.851562 C 820.152344 188.625 820.148438 190.394531 820.140625 192.222656 C 820.140625 194.054688 820.132812 195.878906 820.132812 197.761719 C 820.125 203.59375 820.105469 209.421875 820.089844 215.253906 C 820.082031 219.207031 820.078125 223.164062 820.066406 227.121094 C 820.054688 236.8125 820.027344 246.503906 820 256.191406 C 820.984375 256.34375 821.960938 256.496094 822.972656 256.648438 C 824.261719 256.878906 825.546875 257.109375 826.875 257.34375 C 828.789062 257.664062 828.789062 257.664062 830.742188 257.992188 C 835.09375 259.550781 836.351562 261.144531 838.574219 265.398438 C 839.042969 270.640625 839.042969 270.640625 838.925781 276.425781 C 838.90625 278.347656 838.882812 280.265625 838.859375 282.242188 C 838.574219 286.875 838.574219 286.875 837.144531 288.410156 C 831.382812 288.84375 825.59375 288.765625 819.824219 288.792969 C 817.402344 288.839844 817.402344 288.839844 814.933594 288.886719 C 798.960938 288.96875 798.960938 288.96875 791.429688 283.808594 C 789.828125 280.335938 789.828125 280.335938 789.375 276.617188 C 789.199219 275.375 789.027344 274.136719 788.84375 272.855469 C 788.753906 271.914062 788.667969 270.972656 788.570312 270 C 787.914062 270.574219 787.253906 271.152344 786.570312 271.746094 C 769.03125 286.523438 752.160156 291.402344 730 289.941406 C 719.125 288.261719 711.574219 283.402344 704.285156 274.601562 C 696.285156 262.671875 696.121094 250.566406 697.144531 236.25 C 699.804688 224.304688 709.164062 216.449219 718.285156 209.839844 C 724.667969 206.0625 731.660156 203.832031 738.574219 201.445312 C 739.523438 201.113281 740.472656 200.785156 741.449219 200.449219 C 752.136719 196.917969 762.4375 196.125 773.570312 196.269531 C 775.128906 196.277344 775.128906 196.277344 776.71875 196.285156 C 779.242188 196.304688 781.761719 196.335938 784.285156 196.363281 C 783.921875 192.714844 783.527344 189.078125 783.125 185.433594 C 783.023438 184.414062 782.921875 183.390625 782.824219 182.339844 C 781.847656 173.835938 780.171875 166.71875 773.753906 161.269531 C 762.660156 157.574219 752.628906 157.613281 742.136719 163.324219 C 740.425781 164.316406 738.707031 165.316406 737 166.320312 C 730.519531 170.128906 725.96875 172.105469 718.574219 171.816406 C 711.960938 169.34375 709.105469 164.148438 705.457031 158.0625 C 704.285156 154.941406 704.285156 154.941406 704.464844 151.816406 C 708.617188 141.820312 721.304688 136.03125 730.199219 132.03125 C 753.039062 122.886719 775.660156 122.15625 797.410156 134.519531 Z M 734.375 234.523438 C 731.300781 241.128906 731.050781 245.496094 732.859375 252.644531 C 735.703125 257.703125 737.519531 259.773438 742.746094 261.660156 C 754.351562 264.28125 763.882812 262.03125 774.285156 256.191406 C 775.316406 255.683594 776.347656 255.175781 777.40625 254.65625 C 780.914062 252.359375 782.371094 250.945312 784.285156 246.988281 C 785.476562 238.355469 784.851562 229.578125 784.285156 220.910156 C 767.820312 220.015625 746.828125 221.582031 734.375 234.523438 Z M 734.375 234.523438 "/>
<path style=" stroke:none;fill-rule:nonzero;fill:rgb(99.215686%,99.215686%,99.215686%);fill-opacity:1;" d="M 362.945312 136.246094 C 364.859375 137.824219 366.738281 139.449219 368.570312 141.136719 C 369.457031 141.902344 370.347656 142.675781 371.257812 143.464844 C 384.855469 156.457031 390.148438 176.023438 391.386719 194.90625 C 391.445312 201.1875 390.601562 205.8125 388.570312 211.703125 C 383.503906 215.328125 381.410156 215.148438 375.40625 215.121094 C 373.574219 215.121094 371.742188 215.121094 369.859375 215.121094 C 367.859375 215.101562 365.867188 215.089844 363.867188 215.070312 C 361.824219 215.066406 359.777344 215.058594 357.734375 215.058594 C 352.363281 215.046875 346.984375 215.015625 341.609375 214.984375 C 336.125 214.949219 330.636719 214.9375 325.144531 214.921875 C 314.382812 214.886719 303.621094 214.835938 292.859375 214.773438 C 293.527344 217.988281 294.210938 221.203125 294.890625 224.414062 C 295.265625 226.207031 295.644531 227.996094 296.03125 229.839844 C 298.511719 240.703125 302.960938 246.90625 311.429688 253.125 C 320.300781 258.605469 330.003906 259.140625 339.996094 257.726562 C 348.082031 255.164062 355.632812 251.695312 363.105469 247.527344 C 367.140625 245.453125 367.140625 245.453125 371.964844 244.976562 C 380.007812 248.105469 383.78125 254.96875 388.570312 262.328125 C 383.554688 274.367188 372.425781 280.636719 361.425781 285.339844 C 338.953125 293.671875 313.199219 292.886719 291.8125 281.785156 C 275.273438 271.945312 263.382812 256.394531 257.984375 236.867188 C 251.875 210.136719 252.621094 182.820312 266.0625 158.722656 C 287.183594 126.898438 331.171875 114.414062 362.945312 136.246094 Z M 302.417969 165.683594 C 297.109375 172.421875 293.878906 179.894531 292.859375 188.691406 C 299.488281 190.089844 305.90625 190.453125 312.636719 190.429688 C 314.214844 190.433594 314.214844 190.433594 315.816406 190.433594 C 318.023438 190.4375 320.226562 190.433594 322.4375 190.429688 C 325.796875 190.417969 329.164062 190.429688 332.523438 190.4375 C 334.675781 190.4375 336.828125 190.433594 338.976562 190.429688 C 340.476562 190.433594 340.476562 190.433594 342.007812 190.4375 C 347.230469 190.414062 352.058594 190.019531 357.140625 188.691406 C 355.648438 178.035156 354.234375 169.125 346.0625 161.941406 C 331.894531 151.445312 314.761719 152.824219 302.417969 165.683594 Z M 302.417969 165.683594 "/>
<path style=" stroke:none;fill-rule:nonzero;fill:rgb(99.215686%,99.607843%,99.215686%);fill-opacity:1;" d="M 1232.859375 64.433594 C 1260.671875 64.433594 1288.488281 64.433594 1317.140625 64.433594 C 1317.140625 72.535156 1317.140625 80.632812 1317.140625 88.976562 C 1310 95.113281 1310 95.113281 1295.710938 96.648438 C 1295.710938 149.296875 1295.710938 201.949219 1295.710938 256.191406 C 1301.371094 257.203125 1307.027344 258.214844 1312.855469 259.261719 C 1317.683594 266.175781 1317.660156 268.101562 1317.5 276.425781 C 1317.476562 278.347656 1317.457031 280.265625 1317.433594 282.242188 C 1317.140625 286.875 1317.140625 286.875 1315.714844 288.410156 C 1313.128906 288.554688 1310.535156 288.589844 1307.945312 288.582031 C 1305.457031 288.582031 1305.457031 288.582031 1302.917969 288.582031 C 1300.214844 288.570312 1300.214844 288.570312 1297.449219 288.558594 C 1295.613281 288.558594 1293.777344 288.554688 1291.882812 288.554688 C 1286.992188 288.546875 1282.097656 288.535156 1277.207031 288.515625 C 1272.21875 288.5 1267.230469 288.492188 1262.242188 288.484375 C 1252.445312 288.464844 1242.652344 288.441406 1232.859375 288.410156 C 1232.742188 284.699219 1232.65625 280.996094 1232.589844 277.285156 C 1232.554688 276.242188 1232.515625 275.195312 1232.480469 274.117188 C 1232.410156 269.234375 1232.566406 265.949219 1234.847656 261.667969 C 1237.488281 258.898438 1239.175781 258.144531 1242.765625 257.34375 C 1243.726562 257.113281 1244.679688 256.882812 1245.664062 256.648438 C 1248.574219 256.191406 1248.574219 256.191406 1254.289062 256.191406 C 1254.289062 203.546875 1254.289062 150.890625 1254.289062 96.648438 C 1250.042969 96.140625 1245.800781 95.636719 1241.429688 95.113281 C 1234.851562 91.730469 1234.851562 91.730469 1232.859375 87.441406 C 1232.859375 79.847656 1232.859375 72.253906 1232.859375 64.433594 Z M 1232.859375 64.433594 "/>
<path style=" stroke:none;fill-rule:nonzero;fill:rgb(99.607843%,99.607843%,99.607843%);fill-opacity:1;" d="M 847.144531 58.296875 C 866.472656 58.296875 885.796875 58.296875 905.710938 58.296875 C 905.710938 123.601562 905.710938 188.910156 905.710938 256.191406 C 911.371094 257.203125 917.027344 258.214844 922.855469 259.261719 C 924.269531 260.78125 925.683594 262.300781 927.140625 263.863281 C 927.140625 271.964844 927.140625 280.0625 927.140625 288.410156 C 900.742188 288.410156 874.339844 288.410156 847.144531 288.410156 C 847.144531 280.308594 847.144531 272.210938 847.144531 263.863281 C 852.011719 258.636719 854.820312 257.785156 861.429688 256.191406 C 863.785156 256.191406 866.144531 256.191406 868.574219 256.191406 C 868.574219 201.515625 868.574219 146.839844 868.574219 90.511719 C 863.855469 90.003906 859.144531 89.5 854.289062 88.976562 C 851.929688 86.953125 849.570312 84.925781 847.144531 82.839844 C 847.144531 74.738281 847.144531 66.640625 847.144531 58.296875 Z M 847.144531 58.296875 "/>
<path style=" stroke:none;fill-rule:nonzero;fill:rgb(99.215686%,99.215686%,99.215686%);fill-opacity:1;" d="M 694.285156 130.398438 C 694.738281 138.496094 693.988281 145.988281 692.679688 153.984375 C 692.378906 155.828125 692.082031 157.679688 691.773438 159.582031 C 690 164.148438 690 164.148438 686.261719 166.324219 C 679.78125 167.523438 673.558594 167.3125 667.03125 166.960938 C 658.925781 166.722656 653.394531 168.460938 647.386719 174.402344 C 646.71875 175.289062 646.046875 176.175781 645.359375 177.089844 C 644.328125 178.417969 644.328125 178.417969 643.28125 179.773438 C 639.792969 185.019531 638.21875 189.105469 638.113281 195.585938 C 638.085938 196.9375 638.058594 198.285156 638.027344 199.679688 C 638.003906 201.847656 638.003906 201.847656 637.980469 204.058594 C 637.953125 205.550781 637.921875 207.035156 637.894531 208.574219 C 637.8125 213.324219 637.746094 218.074219 637.679688 222.828125 C 637.625 226.054688 637.566406 229.273438 637.511719 232.5 C 637.375 240.398438 637.25 248.292969 637.140625 256.191406 C 638.332031 256.34375 639.519531 256.496094 640.742188 256.648438 C 642.296875 256.878906 643.847656 257.109375 645.445312 257.34375 C 647.761719 257.664062 647.761719 257.664062 650.117188 257.992188 C 654.285156 259.261719 654.285156 259.261719 658.570312 265.398438 C 658.570312 272.992188 658.570312 280.585938 658.570312 288.410156 C 632.171875 288.410156 605.769531 288.410156 578.574219 288.410156 C 578.574219 280.308594 578.574219 272.210938 578.574219 263.863281 C 583.4375 258.636719 586.25 257.785156 592.859375 256.191406 C 595.210938 256.191406 597.570312 256.191406 600.003906 256.191406 C 600.003906 224.804688 600.003906 193.421875 600.003906 161.078125 C 595.285156 160.570312 590.570312 160.066406 585.714844 159.546875 C 581.277344 157.171875 581.277344 157.171875 578.574219 153.410156 C 578.039062 148.859375 577.882812 145.25 578.125 140.753906 C 578.15625 139.613281 578.1875 138.464844 578.222656 137.292969 C 578.304688 134.476562 578.433594 131.671875 578.574219 128.863281 C 585.410156 128.75 592.25 128.667969 599.085938 128.609375 C 601.417969 128.585938 603.742188 128.558594 606.066406 128.519531 C 609.414062 128.460938 612.753906 128.433594 616.101562 128.414062 C 617.140625 128.390625 618.179688 128.363281 619.25 128.339844 C 626.441406 128.339844 626.441406 128.339844 629.894531 130.914062 C 632.183594 134.71875 632.914062 138.558594 633.839844 142.957031 C 634.199219 144.625 634.558594 146.289062 634.925781 148.011719 C 635.1875 149.285156 635.445312 150.5625 635.710938 151.875 C 636.507812 150.859375 637.304688 149.835938 638.125 148.789062 C 653.695312 129.445312 671.1875 119.574219 694.285156 130.398438 Z M 694.285156 130.398438 "/>
</g>
</svg>
